<?xml version="1.0" encoding="UTF-8"?>
<svg xmlns="http://www.w3.org/2000/svg" width="736" height="736" viewBox="0 0 736 736">
  <defs>
    <clipPath id="roundedClip">
      <rect x="0" y="0" width="100%" height="100%" rx="73" ry="73" />
    </clipPath>
  </defs>
  <g clip-path="url(#roundedClip)">
<path d="M0 0 C242.88 0 485.76 0 736 0 C736 242.88 736 485.76 736 736 C493.12 736 250.24 736 0 736 C0 493.12 0 250.24 0 0 Z " fill="#FEFEFE" transform="translate(0,0)"/>
<path d="M0 0 C1.56234375 0.56654297 1.56234375 0.56654297 3.15625 1.14453125 C24.19323078 9.32236856 45.22280255 22.82639055 61 39 C61.67804688 39.62003906 62.35609375 40.24007812 63.0546875 40.87890625 C63.95574219 41.71228516 63.95574219 41.71228516 64.875 42.5625 C65.49117188 43.12066406 66.10734375 43.67882812 66.7421875 44.25390625 C68 46 68 46 67.91273499 47.75372314 C66.56726763 51.06497146 64.16411975 53.22759604 61.65405273 55.68652344 C61.09795319 56.24306107 60.54185364 56.79959869 59.96890259 57.3730011 C58.13082172 59.20899358 56.28234668 61.03413439 54.43359375 62.859375 C53.15641614 64.13095686 51.87989969 65.40320311 50.60401917 66.67608643 C47.24536118 70.02329412 43.87779136 73.36139483 40.50830078 76.69769287 C37.07108069 80.10421627 33.64234523 83.51925585 30.21289062 86.93359375 C23.48354791 93.63076904 16.74476188 100.31835621 10 107 C11.27330589 109.77960675 12.59828509 111.85743296 14.73388672 114.0402832 C15.28140594 114.60378983 15.82892517 115.16729645 16.39303589 115.74787903 C17.27742844 116.64031563 17.27742844 116.64031563 18.1796875 117.55078125 C18.78886017 118.16898239 19.39803284 118.78718353 20.02566528 119.42411804 C21.31238672 120.72531842 22.60191363 122.02374974 23.89404297 123.31958008 C25.87327926 125.31076886 27.83309886 127.31984808 29.79296875 129.33007812 C31.04572296 130.59229029 32.2995919 131.85339726 33.5546875 133.11328125 C34.14023407 133.71836014 34.72578064 134.32343903 35.32907104 134.94685364 C38.10512366 137.97003677 38.10512366 137.97003677 41.85296631 139.02386475 C45.1387917 137.45693974 47.08421458 134.77425672 49.34521484 132.01147461 C50.43762028 130.71623821 51.53172993 129.42243775 52.62728882 128.12986755 C53.49875612 127.09678372 53.49875612 127.09678372 54.38782883 126.04282951 C100.52502639 71.87380711 100.52502639 71.87380711 126.0390625 69.75390625 C131.72680146 69.38267376 137.32271388 69.54529791 143 70 C143.68686638 70.05471844 144.37373276 70.10943687 145.08141327 70.16581345 C153.49153756 70.88775171 161.76169014 72.15508714 170 74 C165.29596268 79.65388366 160.26744481 84.86892527 155.05712891 90.05639648 C154.1784314 90.93524002 153.29973389 91.81408356 152.39440918 92.71955872 C150.00407883 95.10931511 147.61156392 97.4968428 145.21801805 99.88337588 C142.70981475 102.38529346 140.20447611 104.89007639 137.69882202 107.39454651 C132.96237186 112.12789866 128.22338023 116.85869768 123.4834522 121.58856684 C118.08360458 126.97720561 112.68662373 132.36871174 107.28987241 137.7604512 C96.19641732 148.84347658 85.0993981 159.92292622 74 171 C75.44110431 174.29986149 77.22394287 176.46753341 79.77114868 178.99819946 C80.55641434 179.78332413 81.34167999 180.56844879 82.15074158 181.37736511 C83.01316971 182.2294606 83.87559784 183.08155609 84.76416016 183.95947266 C86.15691012 185.34773983 87.54965982 186.73600726 88.94239974 188.12428451 C90.43794857 189.61309725 91.93595411 191.09939734 93.43468094 192.58501053 C96.55717339 195.68045536 99.6720204 198.78351705 102.78573608 201.88778687 C109.39293069 208.47278954 116.0085442 215.0493048 122.625 221.625 C129.77462068 228.73060891 136.92279308 235.83763849 144.06127584 242.95443952 C147.15945678 246.04263225 150.262455 249.12587784 153.3691752 252.20547891 C154.83318376 253.65819016 156.29491297 255.11314827 157.75563049 256.56916809 C159.54005844 258.34783029 161.32811429 260.12286256 163.12031555 261.89369202 C163.89994156 262.67317703 164.67956757 263.45266205 165.4828186 264.25576782 C166.50764312 265.2739305 166.50764312 265.2739305 167.55317116 266.31266212 C169 268 169 268 169 270 C160.26297752 272.03444879 151.50139869 273.32373383 142.5625 274.0625 C141.55830961 274.14618269 141.55830961 274.14618269 140.53383255 274.23155594 C123.48533404 275.4829084 109.8533349 272.76827083 96.49130726 261.69457722 C80.22776089 247.57665099 65.66233451 231.24797767 51.80526733 214.79598999 C50.9525067 213.79482226 50.9525067 213.79482226 50.08251858 212.77342892 C49.02408772 211.52630887 47.97734267 210.26914126 46.9446497 209.00062656 C45.43041296 207.15414252 45.43041296 207.15414252 43 205 C40.38170127 204.95204356 39.4568283 205.64735002 37.41802979 207.22120667 C36.65858063 207.99064857 36.65858063 207.99064857 35.88378906 208.77563477 C35.30348938 209.35616104 34.7231897 209.93668732 34.12530518 210.5348053 C33.51161072 211.16398361 32.89791626 211.79316193 32.265625 212.44140625 C31.30858673 213.40481178 31.30858673 213.40481178 30.33221436 214.38768005 C28.29765882 216.43901726 26.27378621 218.50054273 24.25 220.5625 C22.87178509 221.95576234 21.49288675 223.34834898 20.11328125 224.74023438 C16.73420954 228.15236865 13.36468136 231.57367707 10 235 C11.5946677 238.97579609 14.36805851 241.60334741 17.38354492 244.53125 C17.93164322 245.07160889 18.47974152 245.61196777 19.04444885 246.16870117 C20.23185707 247.33848787 21.42145856 248.50605152 22.61299706 249.67163086 C24.49634645 251.51554524 26.37206517 253.36690303 28.24568176 255.22070312 C33.57236864 260.4893437 38.90865083 265.74810622 44.25952148 270.9921875 C47.53381228 274.20218524 50.79592079 277.42413926 54.0505619 280.65405273 C55.29435172 281.88354935 56.54280352 283.10834781 57.7958889 284.32836914 C59.54364168 286.03061679 61.27555429 287.74757284 63.00463867 289.46875 C63.52873322 289.97172607 64.05282776 290.47470215 64.59280396 290.99291992 C66.00773621 292.41992188 66.00773621 292.41992188 68 295 C67.84140011 300.05671488 63.27490991 303.05879282 59.87109375 306.3515625 C48.4554389 316.88192167 35.88401437 325.66959779 22.3125 333.1640625 C20.31453312 334.27142622 18.33018653 335.40467897 16.375 336.5859375 C-15.53993495 355.43569596 -60.03285154 360.23986682 -96 354 C-96.85819336 353.8551416 -97.71638672 353.7102832 -98.60058594 353.56103516 C-101.42434611 353.07759559 -104.24383253 352.57476323 -107.0625 352.0625 C-107.94381592 351.90491211 -108.82513184 351.74732422 -109.7331543 351.58496094 C-114.88082093 350.60201417 -119.24184652 349.18397498 -124 347 C-125.65657833 346.46752839 -127.32279883 345.96343717 -129 345.5 C-152.12881598 339.10914295 -175.99048314 323.63635873 -192.5234375 306.4765625 C-194.09766332 304.840442 -194.09766332 304.840442 -196.5 303.0625 C-200.12597131 300.07107367 -203.00892778 296.61632461 -206 293 C-206.83917969 291.98679687 -207.67835938 290.97359375 -208.54296875 289.9296875 C-218.9008973 277.20312126 -227.15003406 263.54544648 -234.16992188 248.73242188 C-234.87432544 247.26229019 -235.61323627 245.80877092 -236.359375 244.359375 C-239.44889323 238.14021494 -241.54238784 231.60827811 -243.625 225 C-243.9144751 224.10531006 -244.2039502 223.21062012 -244.50219727 222.28881836 C-249.51256069 205.83771707 -250.55214547 189.28331378 -250.4375 172.1875 C-250.43445862 171.22199219 -250.43141724 170.25648438 -250.42828369 169.26171875 C-250.36261098 155.15813827 -249.79204175 141.66052229 -246 128 C-245.78037598 127.15727539 -245.56075195 126.31455078 -245.33447266 125.44628906 C-242.2800994 113.82108073 -238.26210912 102.80145196 -233 92 C-232.67161133 91.31873047 -232.34322266 90.63746094 -232.00488281 89.93554688 C-224.42553046 74.40255316 -214.86261252 60.57579564 -203 48 C-201.97195847 46.77685569 -200.9504673 45.54815717 -199.9375 44.3125 C-197.24992219 41.15238104 -194.27340507 38.48102873 -191.109375 35.8046875 C-189.71650932 34.61301353 -188.35062404 33.38897301 -187.015625 32.1328125 C-180.7939545 26.30876756 -173.92743787 21.7453678 -166.78222656 17.15332031 C-165.2149722 16.13911352 -163.66461902 15.09888926 -162.1171875 14.0546875 C-142.06186669 0.70442917 -115.89590056 -8.27409727 -92 -11 C-90.74123047 -11.16435547 -90.74123047 -11.16435547 -89.45703125 -11.33203125 C-59.19002723 -14.60768104 -28.46447693 -10.55917086 0 0 Z " fill="#334856" transform="translate(408,196)"/>
<path d="M0 0 C0.7317041 0.07839111 1.4634082 0.15678223 2.21728516 0.23754883 C7.08302534 0.84243167 10.27360074 1.64860074 13.75 5.125 C13.09 5.125 12.43 5.125 11.75 5.125 C12.74 7.6 12.74 7.6 13.75 10.125 C12.76 10.125 11.77 10.125 10.75 10.125 C10.75 11.115 10.75 12.105 10.75 13.125 C11.74 13.125 12.73 13.125 13.75 13.125 C13.79939662 17.07596978 13.83571755 21.0268203 13.85986328 24.97802734 C13.87488107 26.9841136 13.90028981 28.99011324 13.92578125 30.99609375 C13.93222656 32.25292969 13.93867188 33.50976562 13.9453125 34.8046875 C13.95578613 35.96726074 13.96625977 37.12983398 13.97705078 38.32763672 C13.75 41.125 13.75 41.125 11.75 43.125 C11.75 44.115 11.75 45.105 11.75 46.125 C12.41 46.455 13.07 46.785 13.75 47.125 C11.12440156 46.8169856 8.49960194 46.50379818 5.875 46.1875 C5.12863281 46.10048828 4.38226563 46.01347656 3.61328125 45.92382812 C-2.0234375 45.23828125 -2.0234375 45.23828125 -4.25 44.125 C-9.09795744 43.84630895 -13.95728589 43.8803496 -18.8125 43.875 C-19.87035706 43.87299088 -19.87035706 43.87299088 -20.94958496 43.87094116 C-31.68089484 43.87538065 -41.79944732 44.50325856 -52.25 47.125 C-53.20519531 47.3415625 -54.16039062 47.558125 -55.14453125 47.78125 C-80.75437307 54.08059616 -103.30949099 67.42808722 -121.47265625 86.453125 C-123.25 88.125 -123.25 88.125 -125.25 88.125 C-125.4871875 88.66898437 -125.724375 89.21296875 -125.96875 89.7734375 C-127.58224842 92.73479741 -129.61646719 95.13709748 -131.75 97.75 C-153.3974779 125.29018258 -163.50962469 161.3352335 -159.75 196.125 C-156.39275854 223.56325848 -147.45045075 246.69910051 -131.25 269.125 C-130.57710938 270.07375 -129.90421875 271.0225 -129.2109375 272 C-126.00833233 276.32863529 -122.53096631 279.88710335 -118.390625 283.32421875 C-116.06815269 285.27797739 -113.89278085 287.35270635 -111.6875 289.4375 C-83.73295114 314.42717246 -47.46224261 323.50078755 -10.70849609 322.32470703 C-2.36040431 321.84265571 5.66272314 320.17460765 13.75 318.125 C14.50313477 317.94308105 15.25626953 317.76116211 16.03222656 317.57373047 C25.92419456 315.14522845 34.6772592 311.49853197 43.65234375 306.69921875 C46.75 305.125 46.75 305.125 48.75 305.125 C42.83770644 298.06089348 36.34548778 291.60457912 29.8125 285.125 C28.73609346 284.05362113 27.65991986 282.98200818 26.58398438 281.91015625 C23.97533255 279.31240362 21.36355529 276.71782038 18.75 274.125 C12.07367562 276.08566276 12.07367562 276.08566276 5.4765625 278.29296875 C-3.19646565 281.14392637 -11.3557888 281.49345441 -20.4375 281.5 C-21.61296387 281.50153076 -22.78842773 281.50306152 -23.99951172 281.50463867 C-34.48119032 281.37304795 -44.52467839 280.26594547 -54.3125 276.375 C-55.32691162 275.98139282 -55.32691162 275.98139282 -56.36181641 275.57983398 C-66.13823229 271.68993021 -74.84465186 266.43262786 -83.25 260.125 C-83.86488281 259.66609375 -84.47976563 259.2071875 -85.11328125 258.734375 C-90.66587123 254.29230302 -94.9258801 248.72862775 -99.25 243.125 C-99.85972656 242.34253906 -100.46945312 241.56007813 -101.09765625 240.75390625 C-108.46971404 230.79575074 -114.37218613 219.19535976 -117.25 207.125 C-117.42917969 206.41214844 -117.60835938 205.69929687 -117.79296875 204.96484375 C-119.43164239 197.78178563 -119.48140018 190.84161253 -119.375 183.5 C-119.36597656 182.30503906 -119.35695313 181.11007812 -119.34765625 179.87890625 C-119.32431077 176.96072166 -119.29156656 174.04297224 -119.25 171.125 C-118.92 171.125 -118.59 171.125 -118.25 171.125 C-117.755 183.5 -117.755 183.5 -117.25 196.125 C-116.34021091 190.78641627 -116.34021091 190.78641627 -116.44140625 185.671875 C-116.49876953 184.888125 -116.55613281 184.104375 -116.61523438 183.296875 C-116.748035 181.66645147 -116.88350236 180.0362432 -117.02148438 178.40625 C-117.17198592 176.31652741 -117.21870167 174.21990134 -117.25 172.125 C-116.59 171.465 -115.93 170.805 -115.25 170.125 C-113.93 170.125 -112.61 170.125 -111.25 170.125 C-110.92 173.425 -110.59 176.725 -110.25 180.125 C-109.92 178.805 -109.59 177.485 -109.25 176.125 C-106.03543644 175.08780672 -103.84074417 175.18431663 -100.5625 175.9375 C-99.77488281 176.10894531 -98.98726563 176.28039062 -98.17578125 176.45703125 C-96.25 177.125 -96.25 177.125 -95.25 179.125 C-95.02532169 180.66168865 -94.84203195 182.20468054 -94.6875 183.75 C-94.60371094 184.56726563 -94.51992188 185.38453125 -94.43359375 186.2265625 C-94.37300781 186.85304688 -94.31242187 187.47953125 -94.25 188.125 C-94.17652344 187.07699219 -94.17652344 187.07699219 -94.1015625 186.0078125 C-94.02679688 185.09773437 -93.95203125 184.18765625 -93.875 183.25 C-93.80539062 182.34507812 -93.73578125 181.44015625 -93.6640625 180.5078125 C-93.25 178.125 -93.25 178.125 -91.25 176.125 C-89.19140625 175.96484375 -89.19140625 175.96484375 -86.8125 176.0625 C-83.81312088 176.17615028 -82.15729453 176.09409818 -79.25 175.125 C-77.74077664 178.14344672 -77.91592953 181.27834785 -77.7265625 184.6171875 C-77.17478517 187.52080264 -76.07191587 188.8429095 -74.25 191.125 C-73.78475876 192.98596497 -73.32416298 194.84834955 -72.8984375 196.71875 C-69.01722846 211.12130883 -60.55716715 222.28496038 -48.11328125 230.54296875 C-39.80507513 234.94143081 -30.95469639 236.7124858 -21.625 236.6875 C-20.67222168 236.68508301 -19.71944336 236.68266602 -18.73779297 236.68017578 C-6.50147768 236.36600289 4.61308046 232.45402349 13.75 224.125 C14.55824219 223.43277344 15.36648438 222.74054688 16.19921875 222.02734375 C20.85775095 217.96766621 25.04210163 213.76409759 29.0234375 209.046875 C32.78507835 204.85970917 37.07349938 201.24266708 41.75 198.125 C42.36875 198.929375 42.9875 199.73375 43.625 200.5625 C45.49164041 203.16374519 45.49164041 203.16374519 47.75 204.125 C47.75 205.115 47.75 206.105 47.75 207.125 C49.07 207.785 50.39 208.445 51.75 209.125 C51.75 209.785 51.75 210.445 51.75 211.125 C52.3275 211.186875 52.905 211.24875 53.5 211.3125 C56.66964348 212.45709348 57.74420228 214.45060305 59.75 217.125 C60.636875 217.99125 61.52375 218.8575 62.4375 219.75 C64.75 222.125 64.75 222.125 65.75 225.125 C66.41 225.125 67.07 225.125 67.75 225.125 C67.75 225.785 67.75 226.445 67.75 227.125 C68.41 227.125 69.07 227.125 69.75 227.125 C69.75 227.785 69.75 228.445 69.75 229.125 C70.41 229.455 71.07 229.785 71.75 230.125 C66.47 235.405 61.19 240.685 55.75 246.125 C57.74316291 250.11132582 60.00182911 252.61549386 63.13354492 255.65625 C63.68164322 256.19660889 64.22974152 256.73696777 64.79444885 257.29370117 C65.98185707 258.46348787 67.17145856 259.63105152 68.36299706 260.79663086 C70.24634645 262.64054524 72.12206517 264.49190303 73.99568176 266.34570312 C79.32236864 271.6143437 84.65865083 276.87310622 90.00952148 282.1171875 C93.28381228 285.32718524 96.54592079 288.54913926 99.8005619 291.77905273 C101.04435172 293.00854935 102.29280352 294.23334781 103.5458889 295.45336914 C105.29364168 297.15561679 107.02555429 298.87257284 108.75463867 300.59375 C109.27873322 301.09672607 109.80282776 301.59970215 110.34280396 302.11791992 C111.75773621 303.54492188 111.75773621 303.54492188 113.75 306.125 C113.59140011 311.18171488 109.02490991 314.18379282 105.62109375 317.4765625 C94.2054389 328.00692167 81.63401437 336.79459779 68.0625 344.2890625 C66.06453312 345.39642622 64.08018653 346.52967897 62.125 347.7109375 C30.21006505 366.56069596 -14.28285154 371.36486682 -50.25 365.125 C-51.10819336 364.9801416 -51.96638672 364.8352832 -52.85058594 364.68603516 C-55.67434611 364.20259559 -58.49383253 363.69976323 -61.3125 363.1875 C-62.19381592 363.02991211 -63.07513184 362.87232422 -63.9831543 362.70996094 C-69.13082093 361.72701417 -73.49184652 360.30897498 -78.25 358.125 C-79.90657833 357.59252839 -81.57279883 357.08843717 -83.25 356.625 C-106.37881598 350.23414295 -130.24048314 334.76135873 -146.7734375 317.6015625 C-148.34766332 315.965442 -148.34766332 315.965442 -150.75 314.1875 C-154.37597131 311.19607367 -157.25892778 307.74132461 -160.25 304.125 C-161.08917969 303.11179687 -161.92835938 302.09859375 -162.79296875 301.0546875 C-173.1508973 288.32812126 -181.40003406 274.67044648 -188.41992188 259.85742188 C-189.12432544 258.38729019 -189.86323627 256.93377092 -190.609375 255.484375 C-193.69889323 249.26521494 -195.79238784 242.73327811 -197.875 236.125 C-198.1644751 235.23031006 -198.4539502 234.33562012 -198.75219727 233.41381836 C-203.76256069 216.96271707 -204.80214547 200.40831378 -204.6875 183.3125 C-204.68445862 182.34699219 -204.68141724 181.38148438 -204.67828369 180.38671875 C-204.61261098 166.28313827 -204.04204175 152.78552229 -200.25 139.125 C-200.03037598 138.28227539 -199.81075195 137.43955078 -199.58447266 136.57128906 C-196.5300994 124.94608073 -192.51210912 113.92645196 -187.25 103.125 C-186.92161133 102.44373047 -186.59322266 101.76246094 -186.25488281 101.06054688 C-178.67553046 85.52755316 -169.11261252 71.70079564 -157.25 59.125 C-156.22195847 57.90185569 -155.2004673 56.67315717 -154.1875 55.4375 C-151.49992219 52.27738104 -148.52340507 49.60602873 -145.359375 46.9296875 C-143.96650932 45.73801353 -142.60062404 44.51397301 -141.265625 43.2578125 C-135.0439545 37.43376756 -128.17743787 32.8703678 -121.03222656 28.27832031 C-119.4649722 27.26411352 -117.91461902 26.22388926 -116.3671875 25.1796875 C-96.31186669 11.82942917 -70.14590056 2.85090273 -46.25 0.125 C-44.99123047 -0.03935547 -44.99123047 -0.03935547 -43.70703125 -0.20703125 C-29.33379762 -1.76257601 -14.36207598 -1.561745 0 0 Z " fill="#334956" transform="translate(362.25,184.875)"/>
<path d="M0 0 C2.02040197 0.01078986 4.03992621 -0.00000542 6.06030273 -0.01269531 C13.40770037 0.00178945 20.20804689 0.41080206 27.32397461 2.26074219 C28.07493408 2.44830078 28.82589355 2.63585937 29.59960938 2.82910156 C43.98646332 6.53539723 57.15063339 11.41445099 70.32397461 18.26074219 C68.66541065 22.49236329 65.53648758 25.38951389 62.39819336 28.55761719 C61.81358841 29.15125061 61.22898346 29.74488403 60.62666321 30.35650635 C59.39121655 31.60643126 58.15296428 32.85358846 56.91210938 34.09814453 C55.01626253 36.00592414 53.13987291 37.93155744 51.26342773 39.85839844 C50.05950308 41.07178358 48.85446161 42.28406187 47.64819336 43.49511719 C47.08968185 44.07316101 46.53117035 44.65120483 45.95573425 45.24676514 C43.59739814 47.5782461 41.99558312 49.14757263 38.66821289 49.70825195 C36.44779256 49.28437875 34.56686345 48.75406476 32.49194336 47.86621094 C19.77963268 42.81041471 6.02305654 42.76678032 -7.44702148 43.19140625 C-9.23760073 43.24710444 -11.02916108 43.27082767 -12.82055664 43.28417969 C-31.09577455 44.0140655 -48.67365657 54.37749078 -62.67602539 65.26074219 C-63.53583008 65.92589844 -64.39563477 66.59105469 -65.28149414 67.27636719 C-82.94339823 81.91298591 -93.91551859 105.8710721 -96.67602539 128.26074219 C-96.93379009 132.64076428 -96.95702558 136.99921496 -96.92602539 141.38574219 C-96.93375977 142.48789062 -96.94149414 143.59003906 -96.94946289 144.72558594 C-96.93343045 151.4832606 -96.35979686 157.71466465 -94.67602539 164.26074219 C-94.46574707 165.08928711 -94.25546875 165.91783203 -94.03881836 166.77148438 C-92.37765763 172.78230914 -89.99880767 178.15233129 -87.05102539 183.63574219 C-86.61443604 184.45647217 -86.17784668 185.27720215 -85.72802734 186.12280273 C-81.96784786 193.03173385 -77.66906934 199.17264434 -72.67602539 205.26074219 C-71.89227539 206.31261719 -71.10852539 207.36449219 -70.30102539 208.44824219 C-54.82725444 225.02728249 -31.93120241 235.99665542 -9.33276367 237.48022461 C-5.83999831 237.59893981 -2.35827505 237.64029327 1.13647461 237.63574219 C2.98088135 237.63441284 2.98088135 237.63441284 4.86254883 237.63305664 C14.01436689 237.51383245 21.68117924 236.34450808 30.32397461 233.26074219 C32.0564162 232.72846266 33.79147706 232.20466074 35.52856445 231.68774414 C36.42715179 231.41984573 37.32573914 231.15194733 38.2515564 230.87593079 C38.93545441 230.67291855 39.61935242 230.46990631 40.32397461 230.26074219 C44.60277688 234.49023202 48.8750644 238.72615403 53.14135742 242.96826172 C54.59464634 244.4114719 56.04972231 245.85288482 57.5065918 247.29248047 C59.59624296 249.3579656 61.67945369 251.42975705 63.76147461 253.50292969 C64.41768799 254.1488205 65.07390137 254.7947113 65.75 255.46017456 C66.35062256 256.06064606 66.95124512 256.66111755 67.57006836 257.27978516 C68.10301514 257.80829071 68.63596191 258.33679626 69.18505859 258.88131714 C70.32397461 260.26074219 70.32397461 260.26074219 70.32397461 262.26074219 C44.98692888 274.37079189 44.98692888 274.37079189 32.32397461 277.26074219 C31.09807617 277.54175781 29.87217773 277.82277344 28.60913086 278.11230469 C9.43276317 282.08258131 -11.66972643 282.16458228 -30.67602539 277.26074219 C-31.4372168 277.0727002 -32.1984082 276.8846582 -32.98266602 276.69091797 C-56.62097647 270.71478035 -76.75005396 259.85431468 -94.53930664 243.24121094 C-96.42625052 241.49225198 -98.3614257 239.87391302 -100.36352539 238.26074219 C-104.45998619 234.74540722 -107.55057501 230.64139352 -110.67602539 226.26074219 C-111.05662109 225.72803711 -111.4372168 225.19533203 -111.8293457 224.64648438 C-118.44244311 215.3020044 -123.92643226 205.67224844 -128.67602539 195.26074219 C-129.14782227 194.25269531 -129.61961914 193.24464844 -130.10571289 192.20605469 C-143.0681205 161.85308781 -143.52122068 122.95496758 -131.67602539 92.26074219 C-131.42868652 91.61766113 -131.18134766 90.97458008 -130.92651367 90.31201172 C-123.7931537 72.10918166 -113.27111285 52.43743212 -97.79711914 40.01464844 C-95.54977453 38.20601392 -95.54977453 38.20601392 -93.14868164 35.78808594 C-68.76932561 12.01068932 -33.67703791 -0.21353566 0 0 Z " fill="#FCFCFC" transform="translate(340.676025390625,227.7392578125)"/>
<path d="M0 0 C0.95132813 -0.020625 1.90265625 -0.04125 2.8828125 -0.0625 C9.24300508 -0.09735037 14.3749825 0.82558011 20.25 3.25 C21.13429688 3.60320312 22.01859375 3.95640625 22.9296875 4.3203125 C37.63608141 11.38566189 48.63522432 24.39213253 59.9375 35.8125 C61.62127553 37.50632598 63.30551664 39.19968928 64.99023438 40.89257812 C69.08220687 45.00639887 73.16839161 49.12589744 77.25 53.25 C75.54304969 56.89048642 73.51121269 59.22004827 70.63671875 62.05859375 C69.71826172 62.97060547 68.79980469 63.88261719 67.85351562 64.82226562 C66.88163825 65.77747384 65.909632 66.73255093 64.9375 67.6875 C63.97675154 68.63820522 63.01646043 69.58937285 62.05664062 70.54101562 C60.27790738 72.30234686 58.49712492 74.06161281 56.71362305 75.81811523 C53.32579831 79.16229541 49.95784044 82.52311452 46.63671875 85.93359375 C34.64377054 98.169525 21.09818064 108.49337446 3.24462891 108.71801758 C2.31827637 108.70794678 1.39192383 108.69787598 0.4375 108.6875 C-1.01390381 108.67722778 -1.01390381 108.67722778 -2.49462891 108.66674805 C-9.80929402 108.50276689 -16.13167617 107.53753341 -22.75 104.25 C-23.45640625 103.899375 -24.1628125 103.54875 -24.890625 103.1875 C-38.92113683 95.23319408 -47.45169542 83.1266728 -52.75 68.25 C-56.01902658 53.65753797 -54.23646046 38.44620139 -46.625 25.5625 C-38.71486264 13.99244833 -27.3133951 3.96940785 -13.36230469 0.68847656 C-8.92278027 -0.05669969 -4.49216019 0.02395819 0 0 Z " fill="#FDFDFD" transform="translate(340.75,313.75)"/>
<path d="M0 0 C3.99464445 1.61076347 6.70825624 4.40568558 9.70239258 7.39599609 C10.2605365 7.9458165 10.81868042 8.4956369 11.39373779 9.06211853 C13.23280111 10.87712859 15.06415396 12.69967071 16.89453125 14.5234375 C18.16908733 15.78902784 19.44372119 17.05453986 20.71842957 18.31997681 C23.3859229 20.97099324 26.04900214 23.62636088 28.7097168 26.28417969 C32.12576244 29.69482503 35.55769156 33.08899983 38.99374866 36.47946739 C41.62977029 39.08581288 44.25453266 41.70327414 46.87625694 44.32399368 C48.13731492 45.58083509 49.40251019 46.83353909 50.6718235 48.08204269 C52.44140199 49.82488755 54.19462363 51.58269959 55.94458008 53.34521484 C56.47488327 53.86068375 57.00518646 54.37615265 57.55155945 54.90724182 C58.98323059 56.36849976 58.98323059 56.36849976 61 59 C60.85061456 64.05400416 56.27234133 67.0612776 52.87109375 70.3515625 C41.4554389 80.88192167 28.88401437 89.66959779 15.3125 97.1640625 C13.31453312 98.27142622 11.33018653 99.40467897 9.375 100.5859375 C-4.45173356 108.75235201 -24.8023787 116.51323261 -41 116 C-41 115.34 -41 114.68 -41 114 C-43.31 113.67 -45.62 113.34 -48 113 C-48 111.68 -48 110.36 -48 109 C-46.865625 108.525625 -45.73125 108.05125 -44.5625 107.5625 C-41.24259834 106.36377917 -41.24259834 106.36377917 -40 105 C-39.92773498 103.14712498 -39.9161878 101.29166122 -39.9375 99.4375 C-39.94652344 98.42558594 -39.95554687 97.41367187 -39.96484375 96.37109375 C-39.97644531 95.58863281 -39.98804688 94.80617188 -40 94 C-41.32 93.34 -42.64 92.68 -44 92 C-41.525 91.505 -41.525 91.505 -39 91 C-39 89.68 -39 88.36 -39 87 C-40.27875 87.020625 -41.5575 87.04125 -42.875 87.0625 C-46.75 87.125 -46.75 87.125 -49 86 C-49 84.68 -49 83.36 -49 82 C-45.7 82 -42.4 82 -39 82 C-39 80.35 -39 78.7 -39 77 C-42.3 77 -45.6 77 -49 77 C-47 75 -47 75 -44.375 74.875 C-43.59125 74.91625 -42.8075 74.9575 -42 75 C-42 74.01 -42 73.02 -42 72 C-40.741875 71.6596875 -39.48375 71.319375 -38.1875 70.96875 C-27.84717134 68.07378257 -18.44914766 64.6350925 -8.9921875 59.5390625 C-6 58 -6 58 -4 58 C-9.77046901 51.1228486 -16.06933674 44.81359371 -22.4375 38.5 C-23.4657298 37.47679861 -24.49372626 36.45336267 -25.52148438 35.4296875 C-28.01164338 32.95042001 -30.50492833 30.47432462 -33 28 C-31.15474861 23.8111923 -29.00351938 22.50197965 -25 20.25 C-23.9275 19.63640625 -22.855 19.0228125 -21.75 18.390625 C-19 17 -19 17 -17 17 C-17 16.34 -17 15.68 -17 15 C-15.3203125 13.4921875 -15.3203125 13.4921875 -13.125 11.875 C-12.40570313 11.33617187 -11.68640625 10.79734375 -10.9453125 10.2421875 C-9 9 -9 9 -7 9 C-6.773125 8.443125 -6.54625 7.88625 -6.3125 7.3125 C-4.64103234 4.36753316 -2.44723648 2.31843456 0 0 Z " fill="#334856" transform="translate(415,432)"/>
<path d="M0 0 C2.93230193 1.32120828 4.98664899 2.74638197 7.234375 5.0390625 C7.80800781 5.61914062 8.38164062 6.19921875 8.97265625 6.796875 C9.85244141 7.70179688 9.85244141 7.70179688 10.75 8.625 C11.35199219 9.23601562 11.95398438 9.84703125 12.57421875 10.4765625 C14.05405305 11.97988624 15.52764676 13.48934856 17 15 C16.67 15.66 16.34 16.32 16 17 C15.34 17 14.68 17 14 17 C14 17.66 14 18.32 14 19 C9.52941176 23 9.52941176 23 7 23 C6.34 24.32 5.68 25.64 5 27 C4.34 27 3.68 27 3 27 C3 27.66 3 28.32 3 29 C2.34 29 1.68 29 1 29 C0.505 30.485 0.505 30.485 0 32 C-4.33333333 35 -4.33333333 35 -7 35 C-7 35.66 -7 36.32 -7 37 C-8.38743406 37.70429659 -9.78544635 38.38777598 -11.1875 39.0625 C-11.96480469 39.44535156 -12.74210937 39.82820313 -13.54296875 40.22265625 C-16.65784313 41.20812525 -17.93760826 41.18068115 -21 40 C-23.30049117 38.1595331 -25.29640131 36.08098281 -27.3125 33.9375 C-28.13717773 33.08575195 -28.13717773 33.08575195 -28.97851562 32.21679688 C-30.32827365 30.82009075 -31.66541525 29.41121163 -33 28 C-31.49402323 23.74561563 -28.83252242 22.40579386 -25 20.25 C-23.9275 19.63640625 -22.855 19.0228125 -21.75 18.390625 C-19 17 -19 17 -17 17 C-17 16.34 -17 15.68 -17 15 C-15.3203125 13.4921875 -15.3203125 13.4921875 -13.125 11.875 C-12.40570313 11.33617187 -11.68640625 10.79734375 -10.9453125 10.2421875 C-9 9 -9 9 -7 9 C-6.773125 8.443125 -6.54625 7.88625 -6.3125 7.3125 C-4.64103234 4.36753316 -2.44723648 2.31843456 0 0 Z " fill="#0D1F29" transform="translate(415,432)"/>
<path d="M0 0 C1.15518918 0.90484792 2.29885406 1.8244206 3.4375 2.75 C4.07558594 3.26046875 4.71367187 3.7709375 5.37109375 4.296875 C7.21442189 6.22419171 7.40787222 7.46230949 8 10 C10.49034386 11.29660434 10.49034386 11.29660434 13 12 C13 12.66 13 13.32 13 14 C13.66 14 14.32 14 15 14 C16.4375 15.49609375 16.4375 15.49609375 18 17.4375 C20.14525044 20.15188238 20.14525044 20.15188238 23 22 C23 22.66 23 23.32 23 24 C23.598125 24.2475 24.19625 24.495 24.8125 24.75 C27.28647521 26.16370012 28.43370255 27.65055383 30 30 C28.33255693 34.26699718 25.2490961 37.08234918 22.0625 40.25 C21.52431641 40.80429687 20.98613281 41.35859375 20.43164062 41.9296875 C19.01424346 43.34883239 17.51139692 44.68141504 16 46 C15.01 46 14.02 46 13 46 C13 45.34 13 44.68 13 44 C12.34 44 11.68 44 11 44 C11 43.34 11 42.68 11 42 C10.34 42 9.68 42 9 42 C5 37.52941176 5 37.52941176 5 35 C4.38125 34.7525 3.7625 34.505 3.125 34.25 C1 33 1 33 0 30.9375 C-0.33 30.298125 -0.66 29.65875 -1 29 C-2.32796291 28.64587656 -3.66216607 28.31478446 -5 28 C-7.25 26.125 -7.25 26.125 -9 24 C-9 23.01 -9 22.02 -9 21 C-9.928125 20.566875 -9.928125 20.566875 -10.875 20.125 C-13 19 -13 19 -15 17 C-14.50149639 12.38084347 -11.24721666 9.87885321 -8.0625 6.8125 C-7.51142578 6.26658203 -6.96035156 5.72066406 -6.39257812 5.15820312 C-2.31001106 1.15500553 -2.31001106 1.15500553 0 0 Z " fill="#0D1F28" transform="translate(419,368)"/>
<path d="M0 0 C0.66 0 1.32 0 2 0 C2 11.88 2 23.76 2 36 C13.55 36 25.1 36 37 36 C37 36.66 37 37.32 37 38 C25.45 38 13.9 38 2 38 C2 49.55 2 61.1 2 73 C-1.35393261 69.64606739 -0.36115862 64.39541455 -0.390625 59.828125 C-0.6366094 51.51931846 -4.38606132 47.3346245 -10.25 41.625 C-11.14203125 40.75101562 -12.0340625 39.87703125 -12.953125 38.9765625 C-13.62859375 38.32429688 -14.3040625 37.67203125 -15 37 C-11 36 -11 36 -1 35 C-0.67 23.45 -0.34 11.9 0 0 Z " fill="#EFF0F1" transform="translate(478,442)"/>
<path d="M0 0 C3.625 0.25 3.625 0.25 5.5625 1.625 C6.625 3.25 6.625 3.25 6.625 5.25 C4.315 4.92 2.005 4.59 -0.375 4.25 C0.53401329 6.57370613 0.53401329 6.57370613 3.5625 7.6875 C6.625 9.25 6.625 9.25 8.625 12.25 C8.375 14.375 8.375 14.375 7.625 16.25 C4.49793041 17.8135348 1.04517557 17.64958487 -2.375 17.25 C-3.365 16.59 -4.355 15.93 -5.375 15.25 C-5.375 14.26 -5.375 13.27 -5.375 12.25 C-1.65900809 12.04913557 -0.60291555 12.0980563 2.625 14.25 C2.625 13.26 2.625 12.27 2.625 11.25 C1.67625 10.981875 0.7275 10.71375 -0.25 10.4375 C-3.375 9.25 -3.375 9.25 -5.375 6.25 C-4.67215302 0.34608541 -4.67215302 0.34608541 0 0 Z M18.3125 4.1875 C19.52486328 4.20103516 19.52486328 4.20103516 20.76171875 4.21484375 C21.68404297 4.23224609 21.68404297 4.23224609 22.625 4.25 C22.295 5.24 21.965 6.23 21.625 7.25 C22.615 6.59 23.605 5.93 24.625 5.25 C25.615 5.58 26.605 5.91 27.625 6.25 C26.944375 6.8275 26.26375 7.405 25.5625 8 C24.923125 8.7425 24.28375 9.485 23.625 10.25 C23.76141377 12.46858253 23.76141377 12.46858253 24.625 14.25 C19.80470402 18.22674419 19.80470402 18.22674419 16.4453125 18.29296875 C14.49162563 18.03224541 12.55512925 17.64933709 10.625 17.25 C8.43493521 11.04481641 8.43493521 11.04481641 9.3125 7.375 C11.51767683 3.8047137 14.4658363 4.13175125 18.3125 4.1875 Z " fill="#465966" transform="translate(458.375,356.75)"/>
<path d="M0 0 C0.33 0 0.66 0 1 0 C1 12.21 1 24.42 1 37 C12.22 37 23.44 37 35 37 C35 37.33 35 37.66 35 38 C23.78 38 12.56 38 1 38 C1 49.88 1 61.76 1 74 C0.34 74 -0.32 74 -1 74 C-1 62.12 -1 50.24 -1 38 C-6.445 38.495 -6.445 38.495 -12 39 C-13.32 38.34 -14.64 37.68 -16 37 C-15.14535156 36.19175781 -14.29070312 35.38351563 -13.41015625 34.55078125 C-12.2937458 33.4718972 -11.1778892 32.39243983 -10.0625 31.3125 C-9.49853516 30.78205078 -8.93457031 30.25160156 -8.35351562 29.70507812 C-5.21221747 26.63902064 -3.26462986 24.60114502 -3 20 C-2.67 20 -2.34 20 -2 20 C-1.1561479 15.65548022 -0.91915739 11.60858018 -1 7.1875 C-1.03728204 5.12533699 -1.04719794 3.06195989 -1 1 C-0.67 0.67 -0.34 0.34 0 0 Z " fill="#EEF0F0" transform="translate(479,220)"/>
<path d="M0 0 C2.92980811 2.92980811 2.36810632 6.01844476 2.375 9.9375 C2.39949219 10.66646484 2.42398437 11.39542969 2.44921875 12.14648438 C2.47842845 17.45778109 2.47842845 17.45778109 0.2421875 19.9921875 C-3.32641704 21.59619442 -6.12028308 21.19398585 -10 21 C-10 20.34 -10 19.68 -10 19 C-10.66 19 -11.32 19 -12 19 C-12 18.01 -12 17.02 -12 16 C-9.36 16 -6.72 16 -4 16 C-3.67 15.34 -3.34 14.68 -3 14 C-4.32 13.67 -5.64 13.34 -7 13 C-6.67 12.34 -6.34 11.68 -6 11 C-6.99 11 -7.98 11 -9 11 C-10.125 6.25 -10.125 6.25 -9 4 C-8.34 4 -7.68 4 -7 4 C-7 3.34 -7 2.68 -7 2 C-9.06402968 2.48705712 -9.06402968 2.48705712 -11 4 C-11.81870185 7.56206661 -11.81870185 7.56206661 -12 11 C-12.33 11 -12.66 11 -13 11 C-13.1953125 4.9453125 -13.1953125 4.9453125 -13 3 C-11 1 -11 1 -8.90625 0.83984375 C-7.71515625 0.88818359 -7.71515625 0.88818359 -6.5 0.9375 C-3.11792042 1.1199046 -3.11792042 1.1199046 0 0 Z " fill="#445864" transform="translate(282,360)"/>
<path d="M0 0 C1.32 0 2.64 0 4 0 C4.33 1.65 4.66 3.3 5 5 C6.11375 4.6596875 6.11375 4.6596875 7.25 4.3125 C10 4 10 4 12.3125 4.9375 C14.55744084 7.68131658 14.44013634 9.60801062 14.43359375 13.0625 C13.86736213 15.59268813 13.07847672 16.46654607 11 18 C8.80859375 18.546875 8.80859375 18.546875 6.4375 18.75 C5.65246094 18.82734375 4.86742187 18.9046875 4.05859375 18.984375 C2 19 2 19 0 18 C0 12.06 0 6.12 0 0 Z " fill="#455966" transform="translate(170,356)"/>
<path d="M0 0 C7.04007955 0.9973446 13.43901392 2.2241982 20 5 C19.01 5.495 19.01 5.495 18 6 C18.33 7.98 18.66 9.96 19 12 C16.39576408 12.02697137 13.79180756 12.04682489 11.1875 12.0625 C10.44951172 12.07087891 9.71152344 12.07925781 8.95117188 12.08789062 C5.70077932 12.10259828 3.10595105 12.03531702 0 11 C0 7.37 0 3.74 0 0 Z " fill="#495C68" transform="translate(357,271)"/>
<path d="M0 0 C0 0.66 0 1.32 0 2 C0.99 2 1.98 2 3 2 C3 5.96 3 9.92 3 14 C-1.62 14 -6.24 14 -11 14 C-11.36902432 3.54431088 -11.36902432 3.54431088 -9.75 1.15625 C-6.638305 -0.89969134 -3.63719401 -0.17887839 0 0 Z " fill="#465A66" transform="translate(373,196)"/>
<path d="M0 0 C4.62 0 9.24 0 14 0 C14.36966969 10.47397455 14.36966969 10.47397455 12.70703125 12.83984375 C9.91351095 14.73841476 7.2715691 14.23368351 4 14 C3.01 13.67 2.02 13.34 1 13 C0.11291488 8.45368876 0 4.76562241 0 0 Z " fill="#465966" transform="translate(362,526)"/>
<path d="M0 0 C0 0.66 0 1.32 0 2 C-1.65 2.33 -3.3 2.66 -5 3 C-2.36 3.33 0.28 3.66 3 4 C3 5.65 3 7.3 3 9 C-0.3 9 -3.6 9 -7 9 C-7 10.32 -7 11.64 -7 13 C-3.7 13.33 -0.4 13.66 3 14 C3 15.32 3 16.64 3 18 C1.04174127 18.02694851 -0.91662226 18.04637218 -2.875 18.0625 C-3.96554687 18.07410156 -5.05609375 18.08570313 -6.1796875 18.09765625 C-9 18 -9 18 -11 17 C-11.02698189 15.37509046 -11.04638757 13.75005367 -11.0625 12.125 C-11.07410156 11.22007812 -11.08570313 10.31515625 -11.09765625 9.3828125 C-11 7 -11 7 -10 5 C-9.34 5 -8.68 5 -8 5 C-8 4.01 -8 3.02 -8 2 C-8.99 1.67 -9.98 1.34 -11 1 C-7.32589215 -0.17571451 -3.83070817 -0.07366746 0 0 Z " fill="#445866" transform="translate(373,505)"/>
<path d="M0 0 C2.77141717 -0.08089542 5.54047819 -0.14044062 8.3125 -0.1875 C9.09818359 -0.21263672 9.88386719 -0.23777344 10.69335938 -0.26367188 C11.45068359 -0.27333984 12.20800781 -0.28300781 12.98828125 -0.29296875 C14.03302612 -0.31653442 14.03302612 -0.31653442 15.09887695 -0.34057617 C17.54489783 0.09761557 18.42702086 1.13437358 20 3 C19.67 3.99 19.34 4.98 19 6 C17.03125 6.87890625 17.03125 6.87890625 14.5 7.5625 C13.60539062 7.80742187 12.71078125 8.05234375 11.7890625 8.3046875 C7.8726627 9.28104487 3.95053636 10.17166173 0 11 C0 7.37 0 3.74 0 0 Z " fill="#495C68" transform="translate(362,453)"/>
<path d="M0 0 C0.88945312 0.17144531 1.77890625 0.34289062 2.6953125 0.51953125 C3.41460937 0.73996094 4.13390625 0.96039063 4.875 1.1875 C6.19729189 3.83208379 5.97177194 5.86511301 5.9375 8.8125 C5.92847656 9.81539063 5.91945313 10.81828125 5.91015625 11.8515625 C5.89855469 12.62242187 5.88695312 13.39328125 5.875 14.1875 C4.225 13.8575 2.575 13.5275 0.875 13.1875 C0.875 10.2175 0.875 7.2475 0.875 4.1875 C-0.115 4.5175 -1.105 4.8475 -2.125 5.1875 C-2.455 7.8275 -2.785 10.4675 -3.125 13.1875 C-4.775 13.5175 -6.425 13.8475 -8.125 14.1875 C-8.125 9.5675 -8.125 4.9475 -8.125 0.1875 C-4.79447495 -0.92267502 -3.38087782 -0.68504667 0 0 Z " fill="#435864" transform="translate(261.125,360.8125)"/>
<path d="M0 0 C0.66 0.33 1.32 0.66 2 1 C1.34 1.433125 0.68 1.86625 0 2.3125 C-0.66 2.869375 -1.32 3.42625 -2 4 C-2 4.99 -2 5.98 -2 7 C7.57 7.33 17.14 7.66 27 8 C26.67 8.66 26.34 9.32 26 10 C15.11 10 4.22 10 -7 10 C-7.33 21.22 -7.66 32.44 -8 44 C-8.33 44 -8.66 44 -9 44 C-9.01981934 43.01080566 -9.03963867 42.02161133 -9.06005859 41.00244141 C-9.13603456 37.33827923 -9.22476352 33.67451836 -9.31738281 30.01074219 C-9.35570585 28.42390862 -9.39055288 26.83698719 -9.421875 25.25 C-9.46745431 22.97103434 -9.52545838 20.69267532 -9.5859375 18.4140625 C-9.59748871 17.70255035 -9.60903992 16.99103821 -9.62094116 16.25796509 C-9.63408239 12.17896343 -9.63408239 12.17896343 -12 9 C-8.11327187 5.81994972 -4.10047867 2.89445553 0 0 Z " fill="#EEEEEE" transform="translate(266,249)"/>
<path d="M0 0 C0.33 0 0.66 0 1 0 C1.33 11.22 1.66 22.44 2 34 C3.485 33.505 3.485 33.505 5 33 C7.35836353 32.98391737 9.71739005 33.03451637 12.07421875 33.12109375 C13.09996758 33.15651024 13.09996758 33.15651024 14.1464386 33.19264221 C16.32701226 33.2691145 18.50721595 33.35320881 20.6875 33.4375 C22.1672997 33.49073719 23.64711738 33.54347748 25.12695312 33.59570312 C28.75152817 33.72470697 32.37581023 33.86054727 36 34 C36 34.66 36 35.32 36 36 C26.1 36 16.2 36 6 36 C5.67 36.99 5.34 37.98 5 39 C1.535 37.02 1.535 37.02 -2 35 C-1.01 34.505 -1.01 34.505 0 34 C0 22.78 0 11.56 0 0 Z " fill="#EFF0F0" transform="translate(257,444)"/>
<path d="M0 0 C4.29 0 8.58 0 13 0 C13 4.29 13 8.58 13 13 C9.97562661 14.5121867 7.33758466 14.17263369 4 14 C1.5625 13 1.5625 13 0 12 C0.33 11.34 0.66 10.68 1 10 C3.64860427 9.40644386 6.29197322 9.25790731 9 9 C8.67 7.35 8.34 5.7 8 4 C5.69 4 3.38 4 1 4 C0.67 2.68 0.34 1.36 0 0 Z " fill="#465A68" transform="translate(363,213)"/>
<path d="M0 0 C1.65 0.99 3.3 1.98 5 3 C4.67 3.99 4.34 4.98 4 6 C3.34 6 2.68 6 2 6 C2 15.57 2 25.14 2 35 C1.01 35 0.02 35 -1 35 C-1.02472359 30.49764405 -1.04287119 25.99532764 -1.05493164 21.49291992 C-1.0599596 19.9613374 -1.06678284 18.42975967 -1.07543945 16.89819336 C-1.08757229 14.69643978 -1.09324367 12.49474967 -1.09765625 10.29296875 C-1.10281754 9.60849167 -1.10797882 8.92401459 -1.11329651 8.21879578 C-1.1136536 5.19093758 -0.96616619 2.89849858 0 0 Z " fill="#3C4F5E" transform="translate(257,480)"/>
<path d="M0 0 C0.66 0.33 1.32 0.66 2 1 C0.6875 3.9375 0.6875 3.9375 -1 7 C-4 8 -4 8 -7 7 C-6.67 7.99 -6.34 8.98 -6 10 C-6.928125 10.12375 -6.928125 10.12375 -7.875 10.25 C-10.16150356 10.78035516 -10.16150356 10.78035516 -10.9375 12.875 C-12.35844081 15.71688163 -14.24119033 16.54799491 -17 18 C-17.99 17.01 -18.98 16.02 -20 15 C-14.08664084 8.49200137 -7.85625562 3.92812781 0 0 Z " fill="#F5F7F7" transform="translate(320,317)"/>
<path d="M0 0 C0.66 0 1.32 0 2 0 C0.63055898 2.94956528 -0.87830409 5.52468811 -3 8 C-3.66 8 -4.32 8 -5 8 C-5.309375 8.804375 -5.309375 8.804375 -5.625 9.625 C-7.53250426 12.91978009 -10.04819384 15.59363628 -13 18 C-13.66 18 -14.32 18 -15 18 C-15.2475 18.61875 -15.495 19.2375 -15.75 19.875 C-17.23740369 22.40358627 -18.43678009 22.71839004 -21 24 C-21.68486725 25.32407669 -22.34870203 26.65909241 -23 28 C-25.4375 30.75 -25.4375 30.75 -28 33 C-28.99 33 -29.98 33 -31 33 C-29.69714965 29.48230404 -27.62664692 27.78000705 -24.72265625 25.50390625 C-22.00768025 23.13368911 -19.79764537 20.35478861 -17.515625 17.57421875 C-17.01546875 17.05472656 -16.5153125 16.53523438 -16 16 C-15.34 16 -14.68 16 -14 16 C-14 15.34 -14 14.68 -14 14 C-12.56557708 12.79908779 -11.12671029 11.60286158 -9.66015625 10.44140625 C-7.96883869 8.97294465 -6.63865961 7.44094183 -5.25 5.6875 C-4.5075 4.800625 -3.765 3.91375 -3 3 C-2.34 3 -1.68 3 -1 3 C-0.67 2.01 -0.34 1.02 0 0 Z " fill="#3B525F" transform="translate(425,408)"/>
<path d="M0 0 C11.55 0 23.1 0 35 0 C33.68 1.32 32.36 2.64 31 4 C29.15722656 3.75610352 29.15722656 3.75610352 27 3 C24.82940968 2.91852402 22.65647149 2.89247058 20.484375 2.90234375 C18.60878906 2.90717773 18.60878906 2.90717773 16.6953125 2.91210938 C15.39335937 2.92048828 14.09140625 2.92886719 12.75 2.9375 C11.43257812 2.94201172 10.11515625 2.94652344 8.7578125 2.95117188 C5.50516259 2.96295684 2.25260416 2.97940989 -1 3 C-0.67 2.01 -0.34 1.02 0 0 Z " fill="#405361" transform="translate(221,256)"/>
<path d="M0 0 C0.66 0 1.32 0 2 0 C2 10.89 2 21.78 2 33 C2.66 33.33 3.32 33.66 4 34 C2.515 34.495 2.515 34.495 1 35 C-1.28222786 31.37003094 -1.24460185 28.31115499 -1.23046875 24.08203125 C-1.23001053 23.42418137 -1.22955231 22.76633148 -1.2290802 22.08854675 C-1.22606911 20.70427638 -1.21821711 19.32000906 -1.20581055 17.93579102 C-1.18747229 15.80928665 -1.18530157 13.68321608 -1.18554688 11.55664062 C-1.14754817 1.14754817 -1.14754817 1.14754817 0 0 Z " fill="#3C505E" transform="translate(257,220)"/>
<path d="M0 0 C1.32 0 2.64 0 4 0 C4 6.27 4 12.54 4 19 C2.35 19.33 0.7 19.66 -1 20 C-1.2210949 17.04210873 -1.42740245 14.08447236 -1.625 11.125 C-1.68945312 10.28324219 -1.75390625 9.44148438 -1.8203125 8.57421875 C-1.871875 7.76855469 -1.9234375 6.96289062 -1.9765625 6.1328125 C-2.02893066 5.38918457 -2.08129883 4.64555664 -2.13525391 3.87939453 C-2 2 -2 2 0 0 Z " fill="#3E5361" transform="translate(247,355)"/>
<path d="M0 0 C1 2 1 2 0.0625 5.1875 C-1.77251097 9.26530216 -4.65038662 11.64274983 -8.07421875 14.421875 C-10.14616249 16.04550891 -10.14616249 16.04550891 -12.25 18.4375 C-14 20 -14 20 -18 20 C-18.33 20.99 -18.66 21.98 -19 23 C-19.99 22.67 -20.98 22.34 -22 22 C-14.74 14.74 -7.48 7.48 0 0 Z " fill="#394A58" transform="translate(410,248)"/>
<path d="M0 0 C2.69082872 0.17635452 5.32851446 0.61835921 8 1 C8 2.32 8 3.64 8 5 C7.01 5.33 6.02 5.66 5 6 C4.67 8.97 4.34 11.94 4 15 C2.35 15 0.7 15 -1 15 C-1.02685412 12.68756208 -1.04632841 10.3750373 -1.0625 8.0625 C-1.07410156 6.77472656 -1.08570313 5.48695313 -1.09765625 4.16015625 C-1 1 -1 1 0 0 Z " fill="#445865" transform="translate(187,360)"/>
<path d="M0 0 C1.98 0 3.96 0 6 0 C5.67 0.99 5.34 1.98 5 3 C5.99 2.34 6.98 1.68 8 1 C8.99 1.33 9.98 1.66 11 2 C4.44680851 8.85106383 4.44680851 8.85106383 1 10 C-0.32 10 -1.64 10 -3 10 C-3.1875 7.625 -3.1875 7.625 -3 5 C-2.01 4.34 -1.02 3.68 0 3 C0 2.01 0 1.02 0 0 Z " fill="#475863" transform="translate(475,361)"/>
<path d="M0 0 C3.875 1.75 3.875 1.75 5 4 C-6.88 4 -18.76 4 -31 4 C-31 3.34 -31 2.68 -31 2 C-20.77 2 -10.54 2 0 2 C0 1.34 0 0.68 0 0 Z " fill="#475A67" transform="translate(251,476)"/>
<path d="M0 0 C1.32 0 2.64 0 4 0 C4 1.32 4 2.64 4 4 C5.258125 3.938125 6.51625 3.87625 7.8125 3.8125 C11.71988667 3.79866854 11.71988667 3.79866854 14 5.4375 C15 7 15 7 15 8 C12.87562788 8.19448477 10.75046809 8.38038289 8.625 8.5625 C7.44164062 8.66691406 6.25828125 8.77132812 5.0390625 8.87890625 C2 9 2 9 0 8 C0 5.36 0 2.72 0 0 Z " fill="#4E5E6A" transform="translate(362,541)"/>
<path d="M0 0 C0.86882812 0.06703125 1.73765625 0.1340625 2.6328125 0.203125 C4.875 0.75 4.875 0.75 6.875 3.75 C6.215 3.75 5.555 3.75 4.875 3.75 C5.535 5.4 6.195 7.05 6.875 8.75 C5.555 8.75 4.235 8.75 2.875 8.75 C2.545 7.76 2.215 6.77 1.875 5.75 C-0.23084438 4.94436362 -0.23084438 4.94436362 -2.6875 4.5625 C-3.51378906 4.40394531 -4.34007812 4.24539062 -5.19140625 4.08203125 C-5.82949219 3.97246094 -6.46757812 3.86289063 -7.125 3.75 C-7.125 3.09 -7.125 2.43 -7.125 1.75 C-7.785 1.42 -8.445 1.09 -9.125 0.75 C-5.93934478 -0.22792207 -3.31178911 -0.29657813 0 0 Z " fill="#465B68" transform="translate(369.125,186.25)"/>
<path d="M0 0 C0.33 0.99 0.66 1.98 1 3 C-0.29486821 4.69672386 -1.63360658 6.3603279 -3 8 C-3.433125 9.2375 -3.433125 9.2375 -3.875 10.5 C-5.51163281 14.13696179 -7.78629953 15.65667674 -11 18 C-11.66 18 -12.32 18 -13 18 C-13 18.66 -13 19.32 -13 20 C-13.66 19.67 -14.32 19.34 -15 19 C-10.4558753 12.19801333 -5.57091212 5.99053926 0 0 Z " fill="#3F4F5C" transform="translate(273,296)"/>
<path d="M0 0 C3.23356015 1.21258505 4.00856305 2.01284458 6 5 C5.113125 4.7525 4.22625 4.505 3.3125 4.25 C-0.0585125 3.66578128 -0.0585125 3.66578128 -2.6875 5.6875 C-5.00441942 7.89540712 -5.00441942 7.89540712 -6.6875 10.25 C-7.120625 10.8275 -7.55375 11.405 -8 12 C-8.66 12 -9.32 12 -10 12 C-10.66 13.98 -11.32 15.96 -12 18 C-12.66 18 -13.32 18 -14 18 C-14.66 16.68 -15.32 15.36 -16 14 C-15.278125 13.608125 -14.55625 13.21625 -13.8125 12.8125 C-9.75590826 10.19825199 -6.80618324 7.01348751 -3.8125 3.25 C-2 1 -2 1 0 0 Z " fill="#1A2C36" transform="translate(442,392)"/>
<path d="M0 0 C0.66 0.33 1.32 0.66 2 1 C2 4 2 4 0.5390625 5.46484375 C-0.09257812 5.95082031 -0.72421875 6.43679688 -1.375 6.9375 C-4.13345276 9.06593577 -5.62356097 10.78135722 -7 14 C-7.66 14 -8.32 14 -9 14 C-9.33 14.99 -9.66 15.98 -10 17 C-11.32 17 -12.64 17 -14 17 C-13.505 15.515 -13.505 15.515 -13 14 C-12.34 14 -11.68 14 -11 14 C-10.773125 13.46375 -10.54625 12.9275 -10.3125 12.375 C-7.68741156 7.62483997 -3.88904673 3.74500796 0 0 Z " fill="#3B5260" transform="translate(334,300)"/>
<path d="M0 0 C0.33 1.32 0.66 2.64 1 4 C0.34 4 -0.32 4 -1 4 C-1.66 6.31 -2.32 8.62 -3 11 C-3.33 10.01 -3.66 9.02 -4 8 C-4.99 8.495 -4.99 8.495 -6 9 C-6.33 9.99 -6.66 10.98 -7 12 C-7.99 12 -8.98 12 -10 12 C-10 12.66 -10 13.32 -10 14 C-11.65 14 -13.3 14 -15 14 C-13.85611961 12.85611961 -12.71191726 11.71255995 -11.56640625 10.5703125 C-10.44408974 9.4451972 -9.32755048 8.31430749 -8.21484375 7.1796875 C-7.60769531 6.56351563 -7.00054687 5.94734375 -6.375 5.3125 C-5.80523437 4.73113281 -5.23546875 4.14976562 -4.6484375 3.55078125 C-3 2 -3 2 0 0 Z M-5 11 C-5 14 -5 14 -5 14 Z " fill="#43555F" transform="translate(226,224)"/>
<path d="M0 0 C0.66 0 1.32 0 2 0 C2 0.99 2 1.98 2 3 C2.66 3 3.32 3 4 3 C4 2.34 4 1.68 4 1 C6.64 1.33 9.28 1.66 12 2 C11.5 3.9375 11.5 3.9375 10 6 C6.08511232 7.13303445 2.86667631 7.2888921 -1 6 C-1.042721 4.33388095 -1.04063832 2.66617115 -1 1 C-0.67 0.67 -0.34 0.34 0 0 Z " fill="#3C4D57" transform="translate(361,273)"/>
<path d="M0 0 C1.65 0.99 3.3 1.98 5 3 C4.67 3.99 4.34 4.98 4 6 C3.34 6 2.68 6 2 6 C1.67 14.58 1.34 23.16 1 32 C0.67 32 0.34 32 0 32 C-0.16780395 27.92514175 -0.32834318 23.8500684 -0.48217773 19.7746582 C-0.53552222 18.38851232 -0.59084559 17.00244111 -0.64819336 15.61645508 C-0.73031421 13.62341774 -0.80471215 11.63006691 -0.87890625 9.63671875 C-0.9260376 8.43748779 -0.97316895 7.23825684 -1.02172852 6.00268555 C-1 3 -1 3 0 0 Z " fill="#4C5F6E" transform="translate(257,480)"/>
<path d="M0 0 C0.33 0 0.66 0 1 0 C1 8.25 1 16.5 1 25 C0.01 25 -0.98 25 -2 25 C-2.66 23.68 -3.32 22.36 -4 21 C-3.34 20.67 -2.68 20.34 -2 20 C-0.98069525 15.69980809 -0.91950871 11.58936739 -1 7.1875 C-1.03728204 5.12533699 -1.04719794 3.06195989 -1 1 C-0.67 0.67 -0.34 0.34 0 0 Z " fill="#E9EBEC" transform="translate(479,220)"/>
<path d="M0 0 C0.33 0.66 0.66 1.32 1 2 C1.66 2 2.32 2 3 2 C3.33 1.34 3.66 0.68 4 0 C4.37125 1.2065625 4.37125 1.2065625 4.75 2.4375 C5.72238859 5.171081 5.72238859 5.171081 8.125 5.8125 C9.053125 5.9053125 9.053125 5.9053125 10 6 C10 7.65 10 9.3 10 11 C7 11 7 11 4.73828125 9.03125 C3.93777344 8.1959375 3.13726562 7.360625 2.3125 6.5 C1.50425781 5.6646875 0.69601562 4.829375 -0.13671875 3.96875 C-0.75160156 3.3190625 -1.36648438 2.669375 -2 2 C-1.34 1.34 -0.68 0.68 0 0 Z " fill="#1E2C32" transform="translate(387,461)"/>
<path d="M0 0 C4.71403788 0.47939368 8.66579301 0.96834048 13 3 C11.68 3.33 10.36 3.66 9 4 C9 5.65 9 7.3 9 9 C8.34 9 7.68 9 7 9 C7 8.34 7 7.68 7 7 C6.401875 6.71125 5.80375 6.4225 5.1875 6.125 C3 5 3 5 0 3 C0 2.01 0 1.02 0 0 Z " fill="#42525C" transform="translate(320,419)"/>
<path d="M0 0 C1.51400391 0.01740234 1.51400391 0.01740234 3.05859375 0.03515625 C4.07050781 0.04417969 5.08242188 0.05320312 6.125 0.0625 C7.29869141 0.07990234 7.29869141 0.07990234 8.49609375 0.09765625 C8.49609375 0.42765625 8.49609375 0.75765625 8.49609375 1.09765625 C6.18609375 1.09765625 3.87609375 1.09765625 1.49609375 1.09765625 C1.49609375 2.08765625 1.49609375 3.07765625 1.49609375 4.09765625 C8.09609375 4.09765625 14.69609375 4.09765625 21.49609375 4.09765625 C21.49609375 4.42765625 21.49609375 4.75765625 21.49609375 5.09765625 C13.57609375 5.09765625 5.65609375 5.09765625 -2.50390625 5.09765625 C-2.83390625 3.77765625 -3.16390625 2.45765625 -3.50390625 1.09765625 C-2.50390625 0.09765625 -2.50390625 0.09765625 0 0 Z " fill="#304350" transform="translate(335.50390625,545.90234375)"/>
<path d="M0 0 C0.66 0.33 1.32 0.66 2 1 C0.6875 3.9375 0.6875 3.9375 -1 7 C-3.6906142 7.8968714 -5.88897096 8.27859126 -8.6875 8.5625 C-9.89986328 8.68818359 -9.89986328 8.68818359 -11.13671875 8.81640625 C-11.75160156 8.87699219 -12.36648438 8.93757813 -13 9 C-9.28570342 4.82141635 -5.35814198 1.82153171 0 0 Z " fill="#E7EDEF" transform="translate(320,317)"/>
<path d="M0 0 C0.99 0.495 0.99 0.495 2 1 C2 1.66 2 2.32 2 3 C2.66 3 3.32 3 4 3 C4 3.66 4 4.32 4 5 C4.66 5 5.32 5 6 5 C9 8.46153846 9 8.46153846 9 11 C9.66 11 10.32 11 11 11 C10.34 12.32 9.68 13.64 9 15 C4.73347598 11.2075342 2.10519025 7.32766024 0 2 C0 1.34 0 0.68 0 0 Z " fill="#E6EAEC" transform="translate(291,388)"/>
<path d="M0 0 C0 0.66 0 1.32 0 2 C-1.65 2.33 -3.3 2.66 -5 3 C-5.99 6.3 -6.98 9.6 -8 13 C-8.99 12.34 -9.98 11.68 -11 11 C-10.67 9.02 -10.34 7.04 -10 5 C-9.34 5 -8.68 5 -8 5 C-8 4.01 -8 3.02 -8 2 C-8.99 1.67 -9.98 1.34 -11 1 C-7.32589215 -0.17571451 -3.83070817 -0.07366746 0 0 Z " fill="#475B69" transform="translate(373,505)"/>
<path d="M0 0 C3.7952131 1.49097658 5.61042731 3.75700849 8 7 C7.34 7 6.68 7 6 7 C5.67 7.66 5.34 8.32 5 9 C4.13375 8.2265625 4.13375 8.2265625 3.25 7.4375 C1.12172477 5.73494807 1.12172477 5.73494807 -1.25 6.3125 C-1.8275 6.539375 -2.405 6.76625 -3 7 C-2.67 5.35 -2.34 3.7 -2 2 C-1.34 2 -0.68 2 0 2 C0 1.34 0 0.68 0 0 Z " fill="#3A4B59" transform="translate(238,464)"/>
<path d="M0 0 C0.33 0 0.66 0 1 0 C1.03758423 1.4226416 1.03758423 1.4226416 1.07592773 2.87402344 C1.1711884 6.40018032 1.27041441 9.92617959 1.37231445 13.45214844 C1.41556707 14.97684386 1.45724885 16.50158469 1.49731445 18.02636719 C1.55525203 20.22084222 1.61887795 22.41509068 1.68359375 24.609375 C1.70030624 25.2886908 1.71701874 25.96800659 1.73423767 26.66790771 C1.83507472 29.90538552 2.03139176 32.89769604 3 36 C2.01 36.495 2.01 36.495 1 37 C0.01 36.01 -0.98 35.02 -2 34 C-1.34 34 -0.68 34 0 34 C0 22.78 0 11.56 0 0 Z " fill="#E8E8E9" transform="translate(257,444)"/>
<path d="M0 0 C4.74924755 2.21552987 9.14004626 4.37398285 13 8 C13.33 8.99 13.66 9.98 14 11 C7.86397012 9.58399311 3.73301638 5.9336625 -1 2 C-0.67 1.34 -0.34 0.68 0 0 Z " fill="#D5E0E3" transform="translate(306,407)"/>
<path d="M0 0 C0.66 0.99 1.32 1.98 2 3 C-1.63 6.63 -5.26 10.26 -9 14 C-9.66 13.67 -10.32 13.34 -11 13 C-10.67 11.02 -10.34 9.04 -10 7 C-8.8553125 6.87625 -8.8553125 6.87625 -7.6875 6.75 C-4.44475565 5.84504809 -3.83734184 4.71226652 -2 2 C-1.34 2 -0.68 2 0 2 C0 1.34 0 0.68 0 0 Z " fill="#ECF2F5" transform="translate(404,250)"/>
<path d="M0 0 C0.33 0 0.66 0 1 0 C1.33 9.57 1.66 19.14 2 29 C2.66 29.33 3.32 29.66 4 30 C3.01 30.33 2.02 30.66 1 31 C-1.19628061 27.47695602 -1.16977818 24.79929743 -0.9765625 20.703125 C-0.925 19.49785156 -0.8734375 18.29257813 -0.8203125 17.05078125 C-0.75585938 15.79652344 -0.69140625 14.54226562 -0.625 13.25 C-0.56828125 11.98027344 -0.5115625 10.71054688 -0.453125 9.40234375 C-0.31171042 6.26765385 -0.16030009 3.13377164 0 0 Z " fill="#4A5D6B" transform="translate(257,224)"/>
<path d="M0 0 C3.375 -0.1875 3.375 -0.1875 7 0 C9 3 9 3 9 7 C6.03 7 3.06 7 0 7 C0 6.67 0 6.34 0 6 C1.65 6 3.3 6 5 6 C5 5.01 5 4.02 5 3 C3.35 3 1.7 3 0 3 C0 2.01 0 1.02 0 0 Z " fill="#475A66" transform="translate(159,361)"/>
<path d="M0 0 C0.66 0.33 1.32 0.66 2 1 C1.360625 1.391875 0.72125 1.78375 0.0625 2.1875 C-2.43778819 4.38472296 -2.64950425 5.75791433 -3 9 C-4.65 9 -6.3 9 -8 9 C-8 10.65 -8 12.3 -8 14 C-9.32 12.35 -10.64 10.7 -12 9 C-8.11327187 5.81994972 -4.10047867 2.89445553 0 0 Z " fill="#E2E6E9" transform="translate(266,249)"/>
<path d="M0 0 C0.99 0 1.98 0 3 0 C3 3.96 3 7.92 3 12 C1.68 11.34 0.36 10.68 -1 10 C-1.125 3.375 -1.125 3.375 0 0 Z " fill="#4A5C67" transform="translate(198,362)"/>
<path d="M0 0 C0 0.66 0 1.32 0 2 C-6.27 2 -12.54 2 -19 2 C-19 1.34 -19 0.68 -19 0 C-16.58373582 -0.19534474 -14.16734771 -0.38153404 -11.75 -0.5625 C-11.06808594 -0.61857422 -10.38617188 -0.67464844 -9.68359375 -0.73242188 C-6.2579419 -0.98186254 -3.27298823 -1.13879745 0 0 Z " fill="#465966" transform="translate(461,478)"/>
<path d="M0 0 C0.99 0 1.98 0 3 0 C3 4.29 3 8.58 3 13 C2.01 13 1.02 13 0 13 C0 8.71 0 4.42 0 0 Z " fill="#455C6A" transform="translate(247,361)"/>
<path d="M0 0 C1 3 1 3 1 5 C1.66 5.33 2.32 5.66 3 6 C2.34 6 1.68 6 1 6 C0.67 6.99 0.34 7.98 0 9 C-1.32 8.34 -2.64 7.68 -4 7 C-4.66 7.66 -5.32 8.32 -6 9 C-6 6 -6 6 -4.6875 4.39453125 C-4.130625 3.87246094 -3.57375 3.35039062 -3 2.8125 C-2.443125 2.28269531 -1.88625 1.75289063 -1.3125 1.20703125 C-0.6628125 0.60955078 -0.6628125 0.60955078 0 0 Z " fill="#16262B" transform="translate(412,374)"/>
<path d="M0 0 C2.33944736 0.28730055 4.6739143 0.61936779 7 1 C7 1.99 7 2.98 7 4 C3.91190305 5.76462683 2.76687864 6 -1 6 C-1.042721 4.33388095 -1.04063832 2.66617115 -1 1 C-0.67 0.67 -0.34 0.34 0 0 Z " fill="#364A55" transform="translate(473,365)"/>
<path d="M0 0 C3.25 -0.375 3.25 -0.375 6 0 C5.04578192 1.14926266 4.08647955 2.29430541 3.125 3.4375 C2.59132813 4.07558594 2.05765625 4.71367187 1.5078125 5.37109375 C0 7 0 7 -2 8 C-2.66 7.34 -3.32 6.68 -4 6 C-2.375 3 -2.375 3 0 0 Z " fill="#404F57" transform="translate(572,270)"/>
<path d="M0 0 C0 3.30941204 -0.40339294 5.11090151 -2 8 C-4.625 8.8125 -4.625 8.8125 -7 9 C-7.33 9.99 -7.66 10.98 -8 12 C-8.99 11.67 -9.98 11.34 -11 11 C-7.37 7.37 -3.74 3.74 0 0 Z " fill="#45545E" transform="translate(399,259)"/>
<path d="M0 0 C0.66 0 1.32 0 2 0 C2.33 0.66 2.66 1.32 3 2 C3.99 2 4.98 2 6 2 C1.375 6.875 1.375 6.875 -2 8 C-2.66 7.34 -3.32 6.68 -4 6 C-3.34 6 -2.68 6 -2 6 C-1.855625 5.195625 -1.71125 4.39125 -1.5625 3.5625 C-1 1 -1 1 0 0 Z " fill="#3E4F5A" transform="translate(445,513)"/>
<path d="M0 0 C4.13621084 3.3810038 7.81316569 6.66590534 11 11 C8.875 11 8.875 11 6 10 C0 3.60655738 0 3.60655738 0 0 Z " fill="#E0E8EC" transform="translate(486,436)"/>
<path d="M0 0 C0.66 0.33 1.32 0.66 2 1 C1.814375 1.94875 1.62875 2.8975 1.4375 3.875 C0.71313368 6.89868793 0.71313368 6.89868793 2 9 C1.34 9.66 0.68 10.32 0 11 C-0.99 11 -1.98 11 -3 11 C-3.75 9.4375 -3.75 9.4375 -4 7 C-2.86915563 4.49713591 -1.47860484 2.32992278 0 0 Z " fill="#405059" transform="translate(182,275)"/>
<path d="M0 0 C2.0625 0.4375 2.0625 0.4375 4 1 C4 1.66 4 2.32 4 3 C4.99 3.33 5.98 3.66 7 4 C7.6875 6.0625 7.6875 6.0625 8 8 C5 8 5 8 3.39453125 6.46875 C2.87246094 5.8190625 2.35039062 5.169375 1.8125 4.5 C1.28269531 3.8503125 0.75289063 3.200625 0.20703125 2.53125 C-0.19128906 2.0259375 -0.58960938 1.520625 -1 1 C-0.67 0.67 -0.34 0.34 0 0 Z " fill="#3D4F5A" transform="translate(385,332)"/>
<path d="M0 0 C6.75 0.875 6.75 0.875 9 2 C9 2.99 9 3.98 9 5 C5.625 4.75 5.625 4.75 2 4 C0.5625 1.9375 0.5625 1.9375 0 0 Z " fill="#42515A" transform="translate(262,532)"/>
<path d="M0 0 C3.10096781 0.34455198 4.79937138 0.84817294 7.3125 2.75 C9.30929204 5.41238939 9.36116409 6.74952319 9 10 C8.67 9.34 8.34 8.68 8 8 C7.34 8 6.68 8 6 8 C4.4921875 6.25 4.4921875 6.25 2.875 4 C2.33617187 3.2575 1.79734375 2.515 1.2421875 1.75 C0.62730469 0.88375 0.62730469 0.88375 0 0 Z " fill="#43525D" transform="translate(405,482)"/>
<path d="M0 0 C2.69082872 0.17635452 5.32851446 0.61835921 8 1 C8 3 8 5 8 7 C4.06326356 5.68775452 1.77280706 4.08089673 -1 1 C-0.67 0.67 -0.34 0.34 0 0 Z " fill="#E5EAEC" transform="translate(263,482)"/>
<path d="M0 0 C-0.33 0.99 -0.66 1.98 -1 3 C-0.34 3.33 0.32 3.66 1 4 C-0.093125 3.814375 -1.18625 3.62875 -2.3125 3.4375 C-5.93624133 2.7421932 -5.93624133 2.7421932 -9 4 C-11.1875 3.0625 -11.1875 3.0625 -13 2 C-11.39935157 1.46845258 -9.79431126 0.95011647 -8.1875 0.4375 C-7.29417969 0.14746094 -6.40085937 -0.14257812 -5.48046875 -0.44140625 C-3 -1 -3 -1 0 0 Z " fill="#53626B" transform="translate(367,418)"/>
<path d="M0 0 C0.33 0.99 0.66 1.98 1 3 C-0.52994792 4.23697917 -2.05989583 5.47395833 -3.58984375 6.7109375 C-5.13266437 7.9666391 -5.13266437 7.9666391 -6 10 C-6.66 10 -7.32 10 -8 10 C-8 10.66 -8 11.32 -8 12 C-8.66 12 -9.32 12 -10 12 C-10.33 12.66 -10.66 13.32 -11 14 C-11 11 -11 11 -8.59375 8.30078125 C-7.5700032 7.29697757 -6.5383946 6.30114351 -5.5 5.3125 C-4.97535156 4.80138672 -4.45070313 4.29027344 -3.91015625 3.76367188 C-2.61339096 2.50227292 -1.30753883 1.25022788 0 0 Z " fill="#E4EAED" transform="translate(526,322)"/>
<path d="M0 0 C1.9375 0.75 1.9375 0.75 4 2 C4.75 4.125 4.75 4.125 5 6 C1 6 1 6 -1.25 4 C-1.8275 3.34 -2.405 2.68 -3 2 C-2.01 1.34 -1.02 0.68 0 0 Z " fill="#485962" transform="translate(234,513)"/>
<path d="M0 0 C0.99 0 1.98 0 3 0 C6 5.75 6 5.75 6 8 C5.01 8.33 4.02 8.66 3 9 C3 7.68 3 6.36 3 5 C1.68 4.67 0.36 4.34 -1 4 C-0.67 2.68 -0.34 1.36 0 0 Z " fill="#485762" transform="translate(210,423)"/>
<path d="M0 0 C-0.33 1.32 -0.66 2.64 -1 4 C-3.31 4.33 -5.62 4.66 -8 5 C-8 3.68 -8 2.36 -8 1 C-5.23735711 0.40267181 -2.83967231 0 0 0 Z " fill="#445966" transform="translate(167,370)"/>
<path d="M0 0 C-0.33 1.65 -0.66 3.3 -1 5 C-2.65 4.67 -4.3 4.34 -6 4 C-6 2.68 -6 1.36 -6 0 C-3.50907189 -1.24546405 -2.58919267 -0.7767578 0 0 Z " fill="#374B56" transform="translate(180,366)"/>
<path d="M0 0 C0.99 0.33 1.98 0.66 3 1 C1.02 3.31 -0.96 5.62 -3 8 C-4.32 7.67 -5.64 7.34 -7 7 C-4.66666667 4.66666667 -2.33333333 2.33333333 0 0 Z " fill="#E4ECEE" transform="translate(454,328)"/>
<path d="M0 0 C1.93884889 0.28256092 3.87605961 0.5763793 5.8125 0.875 C6.89144531 1.03742188 7.97039062 1.19984375 9.08203125 1.3671875 C12 2 12 2 15 4 C12.69 3.67 10.38 3.34 8 3 C8 3.66 8 4.32 8 5 C7.34 5 6.68 5 6 5 C6 4.01 6 3.02 6 2 C4.35 2.66 2.7 3.32 1 4 C0.67 2.68 0.34 1.36 0 0 Z " fill="#53626A" transform="translate(357,271)"/>
<path d="M0 0 C2.0625 0.4375 2.0625 0.4375 4 1 C4.33 2.65 4.66 4.3 5 6 C3.35 6 1.7 6 0 6 C-0.38218767 4.34385343 -0.71395102 2.67542976 -1 1 C-0.67 0.67 -0.34 0.34 0 0 Z " fill="#374B56" transform="translate(367,200)"/>
<path d="M0 0 C1.65 0 3.3 0 5 0 C5 1.65 5 3.3 5 5 C3.68 5.33 2.36 5.66 1 6 C1 5.34 1 4.68 1 4 C0.34 4 -0.32 4 -1 4 C-0.67 2.68 -0.34 1.36 0 0 Z " fill="#364A55" transform="translate(367,530)"/>
<path d="M0 0 C0.33 0.66 0.66 1.32 1 2 C0.2575 2.721875 -0.485 3.44375 -1.25 4.1875 C-4.01267269 6.90711047 -4.01267269 6.90711047 -6.1875 9.8125 C-6.785625 10.534375 -7.38375 11.25625 -8 12 C-8.66 12 -9.32 12 -10 12 C-10.33 12.66 -10.66 13.32 -11 14 C-11 11 -11 11 -8.59375 8.30078125 C-7.5700032 7.29697757 -6.5383946 6.30114351 -5.5 5.3125 C-4.97535156 4.80138672 -4.45070313 4.29027344 -3.91015625 3.76367188 C-2.61339096 2.50227292 -1.30753883 1.25022788 0 0 Z " fill="#E3E9EC" transform="translate(438,410)"/>
<path d="M0 0 C0 3 0 3 -2.125 5.3125 C-3.548125 6.6428125 -3.548125 6.6428125 -5 8 C-6.10805226 9.10026735 -7.21226039 10.2044202 -8.3125 11.3125 C-9.199375 12.199375 -10.08625 13.08625 -11 14 C-11.66 13.67 -12.32 13.34 -13 13 C-8.71 8.71 -4.42 4.42 0 0 Z " fill="#E3E9EC" transform="translate(545,303)"/>
<path d="M0 0 C0 0.66 0 1.32 0 2 C1.32 2.33 2.64 2.66 4 3 C3.67 3.33 3.34 3.66 3 4 C1.47480724 3.91062197 -0.04681929 3.75462854 -1.5625 3.5625 C-2.80193359 3.40974609 -2.80193359 3.40974609 -4.06640625 3.25390625 C-4.70449219 3.17011719 -5.34257812 3.08632812 -6 3 C-6 2.34 -6 1.68 -6 1 C-6.66 0.67 -7.32 0.34 -8 0 C-4.94736336 -0.98120464 -3.05263664 -0.98120464 0 0 Z " fill="#445662" transform="translate(368,187)"/>
<path d="M0 0 C0.99 0.33 1.98 0.66 3 1 C3.33 2.98 3.66 4.96 4 7 C1 7 1 7 -0.6875 5.5 C-1.120625 5.005 -1.55375 4.51 -2 4 C-1.34 2.68 -0.68 1.36 0 0 Z " fill="#F0F5F6" transform="translate(420,302)"/>
<path d="M0 0 C1.20628008 2.33214148 2.1654738 4.49642139 3 7 C0.69 7 -1.62 7 -4 7 C-4 4 -4 4 -2 1.8125 C-1.34 1.214375 -0.68 0.61625 0 0 Z " fill="#40505E" transform="translate(387,271)"/>
<path d="M0 0 C0 0.99 0 1.98 0 3 C0.66 3.33 1.32 3.66 2 4 C-3.28 3.34 -8.56 2.68 -14 2 C-14 1.67 -14 1.34 -14 1 C-12.41693353 0.83081732 -10.83353281 0.66476064 -9.25 0.5 C-8.36828125 0.4071875 -7.4865625 0.314375 -6.578125 0.21875 C-4 0 -4 0 0 0 Z " fill="#5E6C76" transform="translate(374,228)"/>
<path d="M0 0 C0 3.19610552 -0.54671542 4.41717626 -2 7.1875 C-2.37125 7.90292969 -2.7425 8.61835938 -3.125 9.35546875 C-3.41375 9.89816406 -3.7025 10.44085938 -4 11 C-4.66 11 -5.32 11 -6 11 C-6.66 11.66 -7.32 12.32 -8 13 C-7.19631101 7.77602153 -3.85808027 3.47227224 0 0 Z " fill="#EEF2F4" transform="translate(475,494)"/>
<path d="M0 0 C1.65 0.99 3.3 1.98 5 3 C4.67 3.99 4.34 4.98 4 6 C3.34 6 2.68 6 2 6 C2 7.98 2 9.96 2 12 C1.67 12 1.34 12 1 12 C1 9.69 1 7.38 1 5 C0.34 5 -0.32 5 -1 5 C-0.67 3.35 -0.34 1.7 0 0 Z " fill="#485964" transform="translate(257,480)"/>
<path d="M0 0 C1.98 0.99 1.98 0.99 4 2 C4 2.66 4 3.32 4 4 C4.66 4 5.32 4 6 4 C7.625 6 7.625 6 9 8 C8.01 8.33 7.02 8.66 6 9 C4.99105628 8.07213211 3.99309093 7.13231567 3 6.1875 C2.1646875 5.40439453 2.1646875 5.40439453 1.3125 4.60546875 C0 3 0 3 0 0 Z " fill="#3E4E59" transform="translate(201,485)"/>
<path d="M0 0 C1.65 0.99 3.3 1.98 5 3 C4.34 4.65 3.68 6.3 3 8 C1.35 6.68 -0.3 5.36 -2 4 C-1.34 2.68 -0.68 1.36 0 0 Z " fill="#E4E9EA" transform="translate(419,429)"/>
<path d="M0 0 C0.639375 0.2475 1.27875 0.495 1.9375 0.75 C2.2675 1.74 2.5975 2.73 2.9375 3.75 C0.22870665 5.10439668 -2.07183268 4.81501451 -5.0625 4.75 C-4.6875 2.8125 -4.6875 2.8125 -4.0625 0.75 C-2.0625 -0.25 -2.0625 -0.25 0 0 Z " fill="#394852" transform="translate(370.0625,457.25)"/>
<path d="M0 0 C1.1725131 0.95117134 2.33787015 1.91117009 3.5 2.875 C4.47453125 3.67550781 4.47453125 3.67550781 5.46875 4.4921875 C5.9740625 4.98976563 6.479375 5.48734375 7 6 C7 6.66 7 7.32 7 8 C5.02 8 3.04 8 1 8 C-1.125 3.375 -1.125 3.375 0 0 Z " fill="#30424E" transform="translate(403,383)"/>
<path d="M0 0 C0.33 0.66 0.66 1.32 1 2 C-3.625 7.75 -3.625 7.75 -7 10 C-7.99 9.67 -8.98 9.34 -10 9 C-6.7 6.03 -3.4 3.06 0 0 Z " fill="#4A5963" transform="translate(402,384)"/>
<path d="M0 0 C1.65 1.65 3.3 3.3 5 5 C4.01 5.66 3.02 6.32 2 7 C0.68 5.68 -0.64 4.36 -2 3 C-1.34 2.01 -0.68 1.02 0 0 Z " fill="#F0F5F4" transform="translate(275,441)"/>
<path d="M0 0 C1.32 0.33 2.64 0.66 4 1 C3.67 1.33 3.34 1.66 3 2 C3.804375 2.4125 4.60875 2.825 5.4375 3.25 C8 5 8 5 8.8125 7.1875 C8.874375 7.785625 8.93625 8.38375 9 9 C8.34 9 7.68 9 7 9 C7 8.34 7 7.68 7 7 C6.401875 6.71125 5.80375 6.4225 5.1875 6.125 C3 5 3 5 0 3 C0 2.01 0 1.02 0 0 Z " fill="#445965" transform="translate(320,419)"/>
<path d="M0 0 C2.97 0 5.94 0 9 0 C8.67 1.32 8.34 2.64 8 4 C8 3.34 8 2.68 8 2 C5.36 2.33 2.72 2.66 0 3 C0 2.01 0 1.02 0 0 Z " fill="#3A505B" transform="translate(159,368)"/>
<path d="M0 0 C1.65 0 3.3 0 5 0 C5 1.65 5 3.3 5 5 C3.35 5 1.7 5 0 5 C0 3.35 0 1.7 0 0 Z " fill="#344A55" transform="translate(274,365)"/>
<path d="M0 0 C0.99 0.99 1.98 1.98 3 3 C2.01 3 1.02 3 0 3 C-0.268125 3.598125 -0.53625 4.19625 -0.8125 4.8125 C-1.98493467 6.97224808 -3.19369282 8.35790256 -5 10 C-5 6.60406522 -4.47834052 5.93380119 -2.5 3.3125 C-2.0359375 2.68988281 -1.571875 2.06726563 -1.09375 1.42578125 C-0.7328125 0.95527344 -0.371875 0.48476563 0 0 Z " fill="#DFE5E8" transform="translate(299,333)"/>
<path d="M0 0 C0.33 0 0.66 0 1 0 C0.67 3.3 0.34 6.6 0 10 C-0.99 10 -1.98 10 -3 10 C-2.67 7.36 -2.34 4.72 -2 2 C-1.34 2 -0.68 2 0 2 C0 1.34 0 0.68 0 0 Z " fill="#47545C" transform="translate(165,318)"/>
<path d="M0 0 C0.66 0.33 1.32 0.66 2 1 C2 1.66 2 2.32 2 3 C1.34 3 0.68 3 0 3 C0 3.99 0 4.98 0 6 C-0.99 6.495 -0.99 6.495 -2 7 C-2.33 7.99 -2.66 8.98 -3 10 C-3.66 10 -4.32 10 -5 10 C-4.55090939 8.51800098 -4.09043436 7.03944764 -3.625 5.5625 C-3.36976563 4.73878906 -3.11453125 3.91507812 -2.8515625 3.06640625 C-2 1 -2 1 0 0 Z " fill="#E0E6E9" transform="translate(213,314)"/>
<path d="M0 0 C0.66 0.99 1.32 1.98 2 3 C1.25 4.9375 1.25 4.9375 0 7 C-2.125 7.75 -2.125 7.75 -4 8 C-4 8.66 -4 9.32 -4 10 C-4.66 9.67 -5.32 9.34 -6 9 C-4.02 6.03 -2.04 3.06 0 0 Z " fill="#485660" transform="translate(264,306)"/>
<path d="M0 0 C1.21744727 3.65234182 0.64202228 4.62953322 -1 8 C-1.66 8.66 -2.32 9.32 -3 10 C-3.66 10 -4.32 10 -5 10 C-3.66511872 6.40608886 -2.03977277 3.24509304 0 0 Z " fill="#E5EBED" transform="translate(225,289)"/>
<path d="M0 0 C-0.33 0.99 -0.66 1.98 -1 3 C-7.27 2.67 -13.54 2.34 -20 2 C-20 1.67 -20 1.34 -20 1 C-17.4167588 0.83178895 -14.83342301 0.66537483 -12.25 0.5 C-11.52039063 0.45230469 -10.79078125 0.40460938 -10.0390625 0.35546875 C-6.68189836 0.14183103 -3.36563724 0 0 0 Z " fill="#4D5D69" transform="translate(463,256)"/>
<path d="M0 0 C1.98 0.66 3.96 1.32 6 2 C6 2.66 6 3.32 6 4 C1.61538462 7 1.61538462 7 -1 7 C-0.67 4.69 -0.34 2.38 0 0 Z " fill="#3E505A" transform="translate(269,241)"/>
<path d="M0 0 C0.66 1.32 1.32 2.64 2 4 C0.68 4.33 -0.64 4.66 -2 5 C-2 5.66 -2 6.32 -2 7 C-3.65 7 -5.3 7 -7 7 C-4.66666667 4.66666667 -2.33333333 2.33333333 0 0 Z " fill="#3D4E5A" transform="translate(218,231)"/>
<path d="M0 0 C0.99 0.33 1.98 0.66 3 1 C-0.96 4.465 -0.96 4.465 -5 8 C-5.66 7.34 -6.32 6.68 -7 6 C-2.25 1.125 -2.25 1.125 0 0 Z " fill="#E7EEF1" transform="translate(223,224)"/>
<path d="M0 0 C1.8125 0.125 1.8125 0.125 4 1 C5.75 4.0625 5.75 4.0625 7 7 C4 7 4 7 1.8125 5.1875 C0 3 0 3 0 0 Z " fill="#3E4E59" transform="translate(216,500)"/>
<path d="M0 0 C0.66 0 1.32 0 2 0 C2 3.63 2 7.26 2 11 C1.34 11 0.68 11 0 11 C-0.66 10.01 -1.32 9.02 -2 8 C-1.67 7.01 -1.34 6.02 -1 5 C-0.28016501 2.53276657 -0.28016501 2.53276657 0 0 Z " fill="#E5E6E7" transform="translate(478,486)"/>
<path d="M0 0 C4.2742558 1.5830577 6.26531794 4.50568404 9 8 C8.01 8 7.02 8 6 8 C4 6 4 6 3 4 C2.01 3.67 1.02 3.34 0 3 C0 2.01 0 1.02 0 0 Z " fill="#404D56" transform="translate(455,472)"/>
<path d="M0 0 C1.98 0.495 1.98 0.495 4 1 C4 2.65 4 4.3 4 6 C3.01 6 2.02 6 1 6 C0.34 5.34 -0.32 4.68 -1 4 C-0.625 1.875 -0.625 1.875 0 0 Z " fill="#16252E" transform="translate(393,466)"/>
<path d="M0 0 C-0.33 0.99 -0.66 1.98 -1 3 C-3.31 3.33 -5.62 3.66 -8 4 C-8 3.01 -8 2.02 -8 1 C-3.375 -1.125 -3.375 -1.125 0 0 Z " fill="#44535C" transform="translate(382,456)"/>
<path d="M0 0 C0 1.32 0 2.64 0 4 C-6.75 6.125 -6.75 6.125 -9 5 C-7.87926138 4.16094435 -6.75325453 3.32892169 -5.625 2.5 C-4.99851562 2.0359375 -4.37203125 1.571875 -3.7265625 1.09375 C-2 0 -2 0 0 0 Z " fill="#DCE4E7" transform="translate(316,320)"/>
<path d="M0 0 C0 0.66 0 1.32 0 2 C-1.134375 2.12375 -2.26875 2.2475 -3.4375 2.375 C-5.2009375 2.684375 -5.2009375 2.684375 -7 3 C-7.33 3.66 -7.66 4.32 -8 5 C-8 4.01 -8 3.02 -8 2 C-8.99 1.67 -9.98 1.34 -11 1 C-7.32589215 -0.17571451 -3.83070817 -0.07366746 0 0 Z " fill="#5D6870" transform="translate(373,505)"/>
<path d="M0 0 C0.33 0.66 0.66 1.32 1 2 C1.66 2 2.32 2 3 2 C3.66 3.65 4.32 5.3 5 7 C4.01 7 3.02 7 2 7 C-0.1875 4.5 -0.1875 4.5 -2 2 C-1.34 2 -0.68 2 0 2 C0 1.34 0 0.68 0 0 Z " fill="#3D4E58" transform="translate(460,405)"/>
<path d="M0 0 C1.31602523 0.61754259 2.62773556 1.24428742 3.9375 1.875 C4.66839844 2.22304688 5.39929688 2.57109375 6.15234375 2.9296875 C8 4 8 4 9 6 C6.8125 6.3125 6.8125 6.3125 4 6 C1.1875 3.5 1.1875 3.5 -1 1 C-0.67 0.67 -0.34 0.34 0 0 Z " fill="#E7EEF0" transform="translate(306,407)"/>
<path d="M0 0 C0.33 1.32 0.66 2.64 1 4 C1.66 4 2.32 4 3 4 C3.66 5.32 4.32 6.64 5 8 C2 8 2 8 -0.1875 6 C-0.785625 5.34 -1.38375 4.68 -2 4 C-1.34 2.68 -0.68 1.36 0 0 Z " fill="#E9EFF2" transform="translate(483,365)"/>
<path d="M0 0 C0.66 0.99 1.32 1.98 2 3 C-0.52956528 6.0916909 -3.22454612 6.90931332 -7 8 C-6.02133662 6.85373678 -5.04205413 5.70800212 -4.0625 4.5625 C-3.51722656 3.92441406 -2.97195313 3.28632813 -2.41015625 2.62890625 C-1.63204305 1.73008851 -0.84063472 0.84063472 0 0 Z " fill="#3F505B" transform="translate(497,289)"/>
<path d="M0 0 C0.99 0.33 1.98 0.66 3 1 C0.48169253 4.12270126 -0.7261549 4.94523098 -4.75 5.75 C-6.35875 5.87375 -6.35875 5.87375 -8 6 C-5.38485683 3.87961365 -2.80362384 1.86908256 0 0 Z " fill="#DEE4E9" transform="translate(444,520)"/>
<path d="M0 0 C2.62113708 2.62113708 4.19642667 4.82227557 6 8 C4.35 8.33 2.7 8.66 1 9 C0.67 6.03 0.34 3.06 0 0 Z " fill="#E1E8EB" transform="translate(185,466)"/>
<path d="M0 0 C2.31 1.98 4.62 3.96 7 6 C6.67 6.66 6.34 7.32 6 8 C2.83884224 6.63016497 2.0072908 6.0109362 0 3 C0 2.01 0 1.02 0 0 Z " fill="#49575F" transform="translate(560,448)"/>
<path d="M0 0 C2.31 1.98 4.62 3.96 7 6 C6.67 6.66 6.34 7.32 6 8 C2.83884224 6.63016497 2.0072908 6.0109362 0 3 C0 2.01 0 1.02 0 0 Z " fill="#48575F" transform="translate(432,320)"/>
<path d="M0 0 C0.33 0.66 0.66 1.32 1 2 C1.66 2.33 2.32 2.66 3 3 C0.03 5.475 0.03 5.475 -3 8 C-3 3.73173127 -2.62386487 3.06117568 0 0 Z " fill="#E1E7EB" transform="translate(269,296)"/>
<path d="M0 0 C-0.33 1.32 -0.66 2.64 -1 4 C-3.31 4.66 -5.62 5.32 -8 6 C-6.24081631 1.94034532 -4.71412298 0 0 0 Z " fill="#3E4E58" transform="translate(252,208)"/>
<path d="M0 0 C0 0.33 0 0.66 0 1 C-1.0725 1.226875 -2.145 1.45375 -3.25 1.6875 C-7.37218701 3.13026545 -8.64414523 4.41910075 -11 8 C-11.21620175 5.3335118 -11.30894168 3.55995679 -10 1.1875 C-6.76011038 -0.73618446 -3.7174181 -0.18282384 0 0 Z " fill="#415460" transform="translate(373,196)"/>
<path d="M0 0 C0.99 0.33 1.98 0.66 3 1 C2.34 2.32 1.68 3.64 1 5 C-2 5 -2 5 -5 4 C-2.6875 1.9375 -2.6875 1.9375 0 0 Z " fill="#E4EBEE" transform="translate(427,530)"/>
<path d="M0 0 C1.98 0.66 3.96 1.32 6 2 C6 2.99 6 3.98 6 5 C2.89448334 5 1.64738916 4.4606285 -1 3 C-0.67 2.01 -0.34 1.02 0 0 Z " fill="#44535D" transform="translate(245,522)"/>
<path d="M0 0 C1.65 0 3.3 0 5 0 C5.66 1.32 6.32 2.64 7 4 C6.34 4.66 5.68 5.32 5 6 C3.35 4.02 1.7 2.04 0 0 Z " fill="#F2F7F9" transform="translate(240,464)"/>
<path d="M0 0 C0.33 0.66 0.66 1.32 1 2 C1.66 2 2.32 2 3 2 C3.66 3.65 4.32 5.3 5 7 C4.01 7 3.02 7 2 7 C-0.1875 4.5 -0.1875 4.5 -2 2 C-1.34 2 -0.68 2 0 2 C0 1.34 0 0.68 0 0 Z " fill="#3E4F59" transform="translate(508,453)"/>
<path d="M0 0 C2.31 1.98 4.62 3.96 7 6 C6.67 6.66 6.34 7.32 6 8 C2.57701423 6.85900474 1.85241234 5.99914379 0 3 C0 2.01 0 1.02 0 0 Z " fill="#49575F" transform="translate(488,376)"/>
<path d="M0 0 C0.33 0.66 0.66 1.32 1 2 C2.65 2 4.3 2 6 2 C6 2.99 6 3.98 6 5 C4.02 5.33 2.04 5.66 0 6 C0 4.02 0 2.04 0 0 Z " fill="#3D4E59" transform="translate(158,362)"/>
<path d="M0 0 C1 2 1 2 0.0625 5.125 C-0.288125 6.07375 -0.63875 7.0225 -1 8 C-2.32 7.01 -3.64 6.02 -5 5 C-3.35 3.35 -1.7 1.7 0 0 Z " fill="#46535D" transform="translate(410,248)"/>
<path d="M0 0 C3.4375 0.8125 3.4375 0.8125 7 2 C7.33 2.99 7.66 3.98 8 5 C7.01 5.33 6.02 5.66 5 6 C3.35 4.02 1.7 2.04 0 0 Z " fill="#44545F" transform="translate(397,474)"/>
<path d="M0 0 C1.65 1.65 3.3 3.3 5 5 C4.34 5 3.68 5 3 5 C2.67 5.66 2.34 6.32 2 7 C0.4375 5.75 0.4375 5.75 -1 4 C-0.6875 1.8125 -0.6875 1.8125 0 0 Z " fill="#495760" transform="translate(241,466)"/>
<path d="M0 0 C0.99 0.495 0.99 0.495 2 1 C2 1.66 2 2.32 2 3 C2.66 3 3.32 3 4 3 C4 3.66 4 4.32 4 5 C4.66 5 5.32 5 6 5 C5.67 5.99 5.34 6.98 5 8 C4.34 8 3.68 8 3 8 C0 2.25 0 2.25 0 0 Z " fill="#ECF4F7" transform="translate(291,388)"/>
<path d="M0 0 C4.19174654 1.04793663 5.21592961 1.91763635 8 5 C7.34 5.66 6.68 6.32 6 7 C4.02 4.69 2.04 2.38 0 0 Z " fill="#ECF1F4" transform="translate(424,311)"/>
<path d="M0 0 C0.66 0.99 1.32 1.98 2 3 C1.01 4.485 1.01 4.485 0 6 C-2.625 6.1875 -2.625 6.1875 -5 6 C-3.35 4.02 -1.7 2.04 0 0 Z " fill="#3E505B" transform="translate(481,305)"/>
<path d="M0 0 C1.32 0.33 2.64 0.66 4 1 C2.35 2.98 0.7 4.96 -1 7 C-1.33 5.68 -1.66 4.36 -2 3 C-1.34 3 -0.68 3 0 3 C0 2.01 0 1.02 0 0 Z " fill="#4C5A65" transform="translate(240,266)"/>
<path d="M0 0 C-1.32 0.99 -2.64 1.98 -4 3 C-4.33 2.67 -4.66 2.34 -5 2 C-6.51469448 1.76807135 -8.03754562 1.58784762 -9.5625 1.4375 C-10.38878906 1.35371094 -11.21507812 1.26992188 -12.06640625 1.18359375 C-12.70449219 1.12300781 -13.34257812 1.06242187 -14 1 C-14 0.67 -14 0.34 -14 0 C-12.2300132 -0.19532961 -10.45895721 -0.38098882 -8.6875 -0.5625 C-7.70136719 -0.66691406 -6.71523437 -0.77132813 -5.69921875 -0.87890625 C-3 -1 -3 -1 0 0 Z " fill="#4F6069" transform="translate(256,257)"/>
<path d="M0 0 C1.98 1.65 3.96 3.3 6 5 C5.34 5.66 4.68 6.32 4 7 C2 5.75 2 5.75 0 4 C0 2.68 0 1.36 0 0 Z " fill="#495760" transform="translate(528,416)"/>
<path d="M0 0 C1.98 1.65 3.96 3.3 6 5 C5.01 6.485 5.01 6.485 4 8 C0 3.375 0 3.375 0 0 Z " fill="#49575F" transform="translate(512,400)"/>
<path d="M0 0 C0.33 0.99 0.66 1.98 1 3 C0 5 0 5 -3 7 C-3.99 6.67 -4.98 6.34 -6 6 C-4.02 4.02 -2.04 2.04 0 0 Z " fill="#3F515C" transform="translate(386,400)"/>
<path d="M0 0 C0.33 1.32 0.66 2.64 1 4 C-0.52100023 5.52100023 -2.27509574 6.72023232 -4 8 C-4.66 7.67 -5.32 7.34 -6 7 C-4.02 4.69 -2.04 2.38 0 0 Z " fill="#51606B" transform="translate(210,238)"/>
<path d="M0 0 C2.31 1.65 4.62 3.3 7 5 C6.34 5.66 5.68 6.32 5 7 C2.69 5.35 0.38 3.7 -2 2 C-1.34 1.34 -0.68 0.68 0 0 Z " fill="#ECF3F5" transform="translate(220,507)"/>
<path d="M0 0 C0.33 0.66 0.66 1.32 1 2 C1.66 2.33 2.32 2.66 3 3 C2.67 3.66 2.34 4.32 2 5 C2.66 5 3.32 5 4 5 C3.67 5.99 3.34 6.98 3 8 C1.35 6.02 -0.3 4.04 -2 2 C-1.34 2 -0.68 2 0 2 C0 1.34 0 0.68 0 0 Z " fill="#3E4F59" transform="translate(492,437)"/>
<path d="M0 0 C2.375 0.25 2.375 0.25 5 1 C6.3125 3.0625 6.3125 3.0625 7 5 C6.01 5 5.02 5 4 5 C1.8125 2.5 1.8125 2.5 0 0 Z " fill="#EBF1F3" transform="translate(553,440)"/>
<path d="M0 0 C2.375 0.25 2.375 0.25 5 1 C6.3125 3.0625 6.3125 3.0625 7 5 C6.01 5 5.02 5 4 5 C1.8125 2.5 1.8125 2.5 0 0 Z " fill="#EBF1F3" transform="translate(537,424)"/>
<path d="M0 0 C0.66 0 1.32 0 2 0 C2 0.66 2 1.32 2 2 C2.66 2 3.32 2 4 2 C4.33 2.99 4.66 3.98 5 5 C4.01 5.33 3.02 5.66 2 6 C1.01 4.68 0.02 3.36 -1 2 C-0.67 1.34 -0.34 0.68 0 0 Z " fill="#3C4F5A" transform="translate(467,413)"/>
<path d="M0 0 C1.98 1.65 3.96 3.3 6 5 C5.67 5.66 5.34 6.32 5 7 C2 6 2 6 0 3 C0 2.01 0 1.02 0 0 Z " fill="#48565F" transform="translate(504,392)"/>
<path d="M0 0 C2.92879371 0.62759865 5.36095629 1.58622659 8 3 C7.01 3.99 6.02 4.98 5 6 C3.35 4.02 1.7 2.04 0 0 Z " fill="#EEF3F5" transform="translate(504,391)"/>
<path d="M0 0 C0 3.52032428 -0.70351351 4.4385343 -3 7 C-3.66 7 -4.32 7 -5 7 C-5.33 7.66 -5.66 8.32 -6 9 C-6 6 -6 6 -4.6875 4.39453125 C-4.130625 3.87246094 -3.57375 3.35039062 -3 2.8125 C-2.443125 2.28269531 -1.88625 1.75289063 -1.3125 1.20703125 C-0.6628125 0.60955078 -0.6628125 0.60955078 0 0 Z " fill="#E4EAED" transform="translate(497,351)"/>
<path d="M0 0 C0 3.90838866 -1.50567876 5.11594107 -4 8 C-4.99 7.67 -5.98 7.34 -7 7 C-4.69 4.69 -2.38 2.38 0 0 Z " fill="#E4EAED" transform="translate(505,343)"/>
<path d="M0 0 C0 3.14668286 -0.52735129 4.31458176 -2 7 C-2.33 7.66 -2.66 8.32 -3 9 C-3.99 8.01 -4.98 7.02 -6 6 C-4.02 4.02 -2.04 2.04 0 0 Z " fill="#EEF1F1" transform="translate(306,326)"/>
<path d="M0 0 C0.66 0.66 1.32 1.32 2 2 C1.34 2 0.68 2 0 2 C-0.33 2.99 -0.66 3.98 -1 5 C-2.32 5 -3.64 5 -5 5 C-4 2 -4 2 -1.9375 0.8125 C-1.298125 0.544375 -0.65875 0.27625 0 0 Z " fill="#4A5A60" transform="translate(325,312)"/>
<path d="M0 0 C0.99 0.66 1.98 1.32 3 2 C1.68 3.65 0.36 5.3 -1 7 C-1.33 5.02 -1.66 3.04 -2 1 C-1.34 0.67 -0.68 0.34 0 0 Z " fill="#E9EEF0" transform="translate(259,308)"/>
<path d="M0 0 C0.66 0.99 1.32 1.98 2 3 C0.75 4.5625 0.75 4.5625 -1 6 C-3.1875 5.6875 -3.1875 5.6875 -5 5 C-3.35 3.35 -1.7 1.7 0 0 Z " fill="#3F505A" transform="translate(489,297)"/>
<path d="M0 0 C0 3.90838866 -1.50567876 5.11594107 -4 8 C-4.99 7.67 -5.98 7.34 -7 7 C-4.69 4.69 -2.38 2.38 0 0 Z " fill="#E4EAED" transform="translate(553,295)"/>
<path d="M0 0 C0 3.52032428 -0.70351351 4.4385343 -3 7 C-3.66 7 -4.32 7 -5 7 C-5.33 7.66 -5.66 8.32 -6 9 C-6 6 -6 6 -4.6875 4.39453125 C-4.130625 3.87246094 -3.57375 3.35039062 -3 2.8125 C-2.443125 2.28269531 -1.88625 1.75289063 -1.3125 1.20703125 C-0.6628125 0.60955078 -0.6628125 0.60955078 0 0 Z " fill="#E4EAED" transform="translate(561,287)"/>
<path d="M0 0 C0 3.52032428 -0.70351351 4.4385343 -3 7 C-3.66 7 -4.32 7 -5 7 C-5.33 7.66 -5.66 8.32 -6 9 C-6 6 -6 6 -4.6875 4.39453125 C-4.130625 3.87246094 -3.57375 3.35039062 -3 2.8125 C-2.443125 2.28269531 -1.88625 1.75289063 -1.3125 1.20703125 C-0.6628125 0.60955078 -0.6628125 0.60955078 0 0 Z " fill="#E3E8EB" transform="translate(577,271)"/>
<path d="M0 0 C-2.33214148 1.20628008 -4.49642139 2.1654738 -7 3 C-7.99 2.34 -8.98 1.68 -10 1 C-3.71428571 -1.42857143 -3.71428571 -1.42857143 0 0 Z M-9 3 C-7 4 -7 4 -7 4 Z " fill="#5A6A76" transform="translate(324,272)"/>
<path d="M0 0 C1.98 0.495 1.98 0.495 4 1 C3.34 2.65 2.68 4.3 2 6 C1.01 5.01 0.02 4.02 -1 3 C-0.67 2.01 -0.34 1.02 0 0 Z " fill="#EBF0F0" transform="translate(179,272)"/>
<path d="M0 0 C0.99 0.33 1.98 0.66 3 1 C-0.465 3.97 -0.465 3.97 -4 7 C-4 6.01 -4 5.02 -4 4 C-3.34 4 -2.68 4 -2 4 C-2 3.01 -2 2.02 -2 1 C-1.34 0.67 -0.68 0.34 0 0 Z " fill="#49565F" transform="translate(248,260)"/>
<path d="M0 0 C1.9453125 0.2421875 1.9453125 0.2421875 4.125 0.875 C4.84945313 1.07867187 5.57390625 1.28234375 6.3203125 1.4921875 C6.87460937 1.65976563 7.42890625 1.82734375 8 2 C7.67 2.66 7.34 3.32 7 4 C2.545 3.01 2.545 3.01 -2 2 C-1.34 1.34 -0.68 0.68 0 0 Z " fill="#505D63" transform="translate(382,232)"/>
<path d="M0 0 C2.64 0.33 5.28 0.66 8 1 C7.67 1.66 7.34 2.32 7 3 C3.9375 3.625 3.9375 3.625 1 4 C1.33 3.01 1.66 2.02 2 1 C1.34 0.67 0.68 0.34 0 0 Z " fill="#516168" transform="translate(366,186)"/>
<path d="M0 0 C1.32 0 2.64 0 4 0 C3.625 2.4375 3.625 2.4375 3 5 C2.01 5.495 2.01 5.495 1 6 C0.67 4.02 0.34 2.04 0 0 Z " fill="#455A66" transform="translate(362,541)"/>
<path d="M0 0 C0.66 0.33 1.32 0.66 2 1 C1.3125 2.9375 1.3125 2.9375 0 5 C-2.625 5.75 -2.625 5.75 -5 6 C-3.35 4.02 -1.7 2.04 0 0 Z " fill="#DEE3E6" transform="translate(463,505)"/>
<path d="M0 0 C0.66 0.33 1.32 0.66 2 1 C-0.17424117 3.50037734 -1.73045798 4.43628586 -5 5 C-5.33 4.34 -5.66 3.68 -6 3 C-4.03533587 1.93224776 -2.03144641 0.93446535 0 0 Z " fill="#55626A" transform="translate(409,490)"/>
<path d="M0 0 C1.875 0.25 1.875 0.25 4 1 C5.25 3.0625 5.25 3.0625 6 5 C3 5 3 5 1.3125 3.625 C0 2 0 2 0 0 Z " fill="#3E4F5C" transform="translate(265,429)"/>
<path d="M0 0 C2.475 0.495 2.475 0.495 5 1 C5 1.66 5 2.32 5 3 C5.66 3.33 6.32 3.66 7 4 C6.34 4.66 5.68 5.32 5 6 C3.35 4.02 1.7 2.04 0 0 Z " fill="#40515C" transform="translate(412,361)"/>
<path d="M0 0 C0 0.66 0 1.32 0 2 C-0.66 2 -1.32 2 -2 2 C-2.33 3.32 -2.66 4.64 -3 6 C-4.32 4.35 -5.64 2.7 -7 1 C-2.25 0 -2.25 0 0 0 Z " fill="#3E515B" transform="translate(399,340)"/>
<path d="M0 0 C1.485 0.99 1.485 0.99 3 2 C2.6875 4.375 2.6875 4.375 2 7 C1.01 7.66 0.02 8.32 -1 9 C-0.67 6.03 -0.34 3.06 0 0 Z " fill="#566771" transform="translate(161,328)"/>
<path d="M0 0 C0.6875 1.6875 0.6875 1.6875 1 4 C-0.3125 6.75 -0.3125 6.75 -2 9 C-2.66 9 -3.32 9 -4 9 C-2.80100302 5.9168649 -1.52299523 2.93720508 0 0 Z " fill="#4D5A63" transform="translate(257,316)"/>
<path d="M0 0 C0 2.62113708 -0.31292445 4.50935112 -1 7 C-1.99 6.67 -2.98 6.34 -4 6 C-3.6875 4.125 -3.6875 4.125 -3 2 C-2.01 1.34 -1.02 0.68 0 0 Z " fill="#2F414D" transform="translate(198,256)"/>
<path d="M0 0 C1.98 0.495 1.98 0.495 4 1 C3.34 2.32 2.68 3.64 2 5 C1.01 5 0.02 5 -1 5 C-0.67 3.35 -0.34 1.7 0 0 Z " fill="#E7F0F3" transform="translate(407,245)"/>
<path d="M0 0 C0.66 0.33 1.32 0.66 2 1 C1.401875 1.268125 0.80375 1.53625 0.1875 1.8125 C-1.97224808 2.98493467 -3.35790256 4.19369282 -5 6 C-5.99 5.34 -6.98 4.68 -8 4 C-6.71349294 3.30289269 -5.42059335 2.61757124 -4.125 1.9375 C-3.40570313 1.55464844 -2.68640625 1.17179688 -1.9453125 0.77734375 C-1.30335938 0.52082031 -0.66140625 0.26429688 0 0 Z " fill="#525D64" transform="translate(267,199)"/>
<path d="M0 0 C0 0.33 0 0.66 0 1 C-1.1446875 1.2165625 -1.1446875 1.2165625 -2.3125 1.4375 C-5.08172908 1.9632594 -5.08172908 1.9632594 -8 3 C-10.1875 2.0625 -10.1875 2.0625 -12 1 C-8.0186217 -0.3271261 -4.14954773 -0.06915913 0 0 Z " fill="#636E76" transform="translate(324,185)"/>
  </g>
</svg>
